<svg version="1.1" xmlns="http://www.w3.org/2000/svg" xmlns:xlink="http://www.w3.org/1999/xlink" width="1560" height="804"><defs/><g><path fill="none" stroke="#02063B" paint-order="fill stroke markers" d=" M 20 428.82120893487763 L 21 430.14689781110275 L 22 431.47034284877367 L 23 432.79143854436313 L 24 434.11007958163077 L 25 435.42616084001884 L 26 436.7395774030321 L 27 438.05022456660197 L 28 439.35799784743296 L 29 440.66279299133254 L 30 441.9645059815216 L 31 443.263033046927 L 32 444.5582706704537 L 33 445.8501155972374 L 34 447.1384648428756 L 35 448.4232157016375 L 36 449.70426575465166 L 37 450.9815128780706 L 38 452.254855251212 L 39 453.52419136467586 L 40 454.78942002843667 L 41 456.0504403799099 L 42 457.30715189199316 L 43 458.5594543810796 L 44 459.80724801504476 L 45 461.0504333212049 L 46 462.2889111942469 L 47 463.5225829041289 L 48 464.75135010395087 L 49 465.97511483779465 L 50 467.19377954853303 L 51 468.4072470856068 L 52 469.6154207127695 L 53 470.81820411579906 L 54 472.015501410176 L 55 473.2072171487272 L 56 474.39325632923465 L 57 475.5735244020092 L 58 476.7479272774278 L 59 477.9163713334341 L 60 479.0787634230022 L 61 480.23501088156195 L 62 481.3850215343863 L 63 482.5287037039391 L 64 483.66596621718355 L 65 484.79671841285085 L 66 485.92087014866706 L 67 487.03833180853934 L 68 488.1490143097002 L 69 489.25282910980883 L 70 490.3496882140098 L 71 491.43950418194765 L 72 492.52219013473797 L 73 493.5976597618927 L 74 494.6658273282013 L 75 495.72660768056505 L 76 496.77991625478546 L 77 497.8256690823057 L 78 498.8637827969044 L 79 499.89417464134175 L 80 500.9167624739563 L 81 501.9314647752137 L 82 502.9382006542053 L 83 503.93688985509607 L 84 504.92745276352343 L 85 505.9098104129434 L 86 506.8838844909258 L 87 507.8495973453974 L 88 508.8068719908321 L 89 509.75563211438833 L 90 510.69580208199227 L 91 511.6273069443676 L 92 512.5500724430104 L 93 513.4640250161087 L 94 514.3690918044072 L 95 515.2652006570146 L 96 516.1522801371566 L 97 517.0302595278699 L 98 517.8990688376401 L 99 518.7586388059809 L 100 519.608900908956 L 101 520.4497873646415 L 102 521.281231138529 L 103 522.1031659488707 L 104 522.9155262719617 L 105 523.7182473473647 L 106 524.511265183072 L 107 525.2945165606077 L 108 526.0679390400658 L 109 526.8314709650897 L 110 527.585051467786 L 111 528.3286204735776 L 112 529.0621187059924 L 113 529.7854876913888 L 114 530.4986697636172 L 115 531.2016080686171 L 116 531.8942465689498 L 117 532.5765300482647 L 118 533.2484041157018 L 119 533.9098152102277 L 120 534.5607106049054 L 121 535.2010384110968 L 122 535.8307475826007 L 123 536.4497879197208 L 124 537.0581100732684 L 125 537.655665548496 L 126 538.2424067089634 L 127 538.8182867803351 L 128 539.3832598541097 L 129 539.9372808912786 L 130 540.4803057259174 L 131 541.0122910687064 L 132 541.5331945103815 L 133 542.042974525115 L 134 542.5415904738263 L 135 543.0290026074214 L 136 543.5051720699613 L 137 543.9700609017605 L 138 544.4236320424118 L 139 544.865849333742 L 140 545.2966775226935 L 141 545.7160822641351 L 142 546.1240301235996 L 143 546.5204885799495 L 144 546.9054260279694 L 145 547.2788117808855 L 146 547.6406160728117 L 147 547.9908100611233 L 148 548.329365828755 L 149 548.656256386428 L 150 548.9714556748002 L 151 549.274938566544 L 152 549.5666808683501 L 153 549.8466593228552 L 154 550.1148516104965 L 155 550.3712363512911 L 156 550.6157931065404 L 157 550.848502380459 L 158 551.0693456217292 L 159 551.2783052249802 L 160 551.4753645321907 L 161 551.6605078340181 L 162 551.8337203710494 L 163 551.9949883349793 L 164 552.1442988697096 L 165 552.2816400723751 L 166 552.4070009942919 L 167 552.5203716418305 L 168 552.6217429772122 L 169 552.71110691923 L 170 552.7884563438924 L 171 552.8537850849918 L 172 552.9070879345953 L 173 552.9483606434607 L 174 552.9775999213747 L 175 552.9948034374156 L 176 552.9999698201386 L 177 552.9930986576857 L 178 552.974190497818 L 179 552.9432468478724 L 180 552.9002701746415 L 181 552.8452639041766 L 182 552.7782324215145 L 183 552.6991810703289 L 184 552.6081161525028 L 185 552.5050449276278 L 186 552.3899756124241 L 187 552.2629173800862 L 188 552.1238803595511 L 189 551.9728756346916 L 190 551.8099152434318 L 191 551.635012176788 L 192 551.4481803778331 L 193 551.2494347405845 L 194 551.0387911088177 L 195 550.8162662748025 L 196 550.5818779779645 L 197 550.3356449034711 L 198 550.0775866807418 L 199 549.8077238818835 L 200 549.5260780200505 L 201 549.2326715477291 L 202 548.9275278549484 L 203 548.610671267415 L 204 548.2821270445745 L 205 547.9419213775969 L 206 547.5900813872898 L 207 547.2266351219355 L 208 546.8516115550549 L 209 546.4650405830989 L 210 546.0669530230638 L 211 545.6573806100354 L 212 545.2363559946588 L 213 544.8039127405355 L 214 544.360085321548 L 215 543.9049091191115 L 216 543.438420419353 L 217 542.9606564102188 L 218 542.4716551785104 L 219 541.9714557068478 L 220 541.4600978705613 L 221 540.9376224345141 L 222 540.404071049851 L 223 539.8594862506795 L 224 539.3039114506779 L 225 538.7373909396348 L 226 538.1599698799184 L 227 537.5716943028764 L 228 536.9726111051659 L 229 536.3627680450156 L 230 535.7422137384177 L 231 535.1109976552531 L 232 534.4691701153471 L 233 533.8167822844584 L 234 533.1538861701998 L 235 532.4805346178928 L 236 531.7967813063542 L 237 531.1026807436173 L 238 530.3982882625862 L 239 529.6836600166255 L 240 528.9588529750828 L 241 528.2239249187478 L 242 527.4789344352462 L 243 526.7239409143683 L 244 525.9590045433359 L 245 525.1841863020029 L 246 524.3995479579946 L 247 523.6051520617841 L 248 522.8010619417051 L 249 521.987341698904 L 250 521.164056202229 L 251 520.3312710830601 L 252 519.4890527300761 L 253 518.6374682839623 L 254 517.7765856320586 L 255 516.9064734029469 L 256 516.0272009609804 L 257 515.1388384007544 L 258 514.2414565415177 L 259 513.3351269215275 L 260 512.4199217923461 L 261 511.49591411308177 L 262 510.56317754457126 L 263 509.6217864435089 L 264 508.67181585651826 L 265 507.71334151417 L 266 506.74643982494405 L 267 505.7711878691391 L 268 504.7876633927276 L 269 503.7959448011577 L 270 502.7961111531031 L 271 501.78824215416057 L 272 500.7724181504959 L 273 499.74872012243884 L 274 498.7172296780271 L 275 497.67802904650125 L 276 496.631201071749 L 277 495.5768292057012 L 278 494.514997501679 L 279 493.44579060769354 L 280 492.3692937596974 L 281 491.28559277479025 L 282 490.19477404437714 L 283 489.0969245272816 L 284 487.99213174281374 L 285 486.8804837637927 L 286 485.7620692095262 L 287 484.63697723874526 L 288 483.5052975424972 L 289 482.3671203369953 L 290 481.22253635642664 L 291 480.07163684571924 L 292 478.91451355326797 L 293 477.7512587236205 L 294 476.58196509012345 L 295 475.40672586753027 L 296 474.22563474456985 L 297 473.0387858764778 L 298 471.8462738774908 L 299 470.6481938133036 L 300 469.444641193491 L 301 468.2357119638936 L 302 467.0215024989691 L 303 465.80210959410977 L 304 464.5776304579254 L 305 463.34816270449477 L 306 462.11380434558316 L 307 460.8746537828297 L 308 459.63080979990207 L 309 458.3823715546225 L 310 457.12943857106245 L 311 455.87211073160853 L 312 454.6104882690006 L 313 453.3446717583406 L 314 452.07476210907566 L 315 450.8008605569527 L 316 449.5230686559491 L 317 448.2414882701761 L 318 446.9562215657586 L 319 445.6673710026908 L 320 444.3750393266679 L 321 443.0793295608955 L 322 441.78034499787657 L 323 440.47818919117725 L 324 439.1729659471717 L 325 437.8647793167664 L 326 436.55373358710597 L 327 435.23993327325877 L 328 433.92348310988586 L 329 432.6044880428909 L 330 431.28305322105473 L 331 429.9592839876524 L 332 428.63328587205564 L 333 427.3051645813202 L 334 425.97502599175874 L 335 424.642976140501 L 336 423.30912121703994 L 337 421.97356755476716 L 338 420.63642162249556 L 339 419.29779001597205 L 340 417.95777944937987 L 341 416.6164967468312 L 342 415.2740488338516 L 343 413.93054272885587 L 344 412.5860855346165 L 345 411.24078442972603 L 346 409.8947466600523 L 347 408.5480795301894 L 348 407.2008903949032 L 349 405.85328665057335 L 350 404.50537572663154 L 351 403.15726507699753 L 352 401.809062171513 L 353 400.46087448737416 L 354 399.11280950056374 L 355 397.7649746772832 L 356 396.41747746538573 L 357 395.07042528581024 L 358 393.72392552401857 L 359 392.3780855214342 L 360 391.0330125668852 L 361 389.688813888052 L 362 388.34559664291805 L 363 387.00346791122865 L 364 385.66253468595363 L 365 384.32290386475864 L 366 382.9846822414832 L 367 381.6479764976269 L 368 380.31289319384547 L 369 378.97953876145533 L 370 377.64801949394945 L 371 376.31844153852336 L 372 374.9909108876135 L 373 373.6655333704477 L 374 372.342414644608 L 375 371.02166018760863 L 376 369.7033752884867 L 377 368.38766503940917 L 378 367.0746343272947 L 379 365.7643878254524 L 380 364.45702998523734 L 381 363.1526650277237 L 382 361.8513969353966 L 383 360.55332944386237 L 384 359.2585660335794 L 385 357.96720992160823 L 386 356.6793640533836 L 387 355.3951310945077 L 388 354.11461342256547 L 389 352.83791311896374 L 390 351.56513196079277 L 391 350.2963714127133 L 392 349.0317326188674 L 393 347.7713163948157 L 394 346.5152232195005 L 395 345.2635532272354 L 396 344.01640619972295 L 397 342.77388155810013 L 398 341.5360783550127 L 399 340.3030952667185 L 400 339.0750305852215 L 401 337.851982210436 L 402 336.6340476423817 L 403 335.4213239734118 L 404 334.2139078804724 L 405 333.0118956173958 L 406 331.81538300722707 L 407 330.6244654345852 L 408 329.4392378380594 L 409 328.2597947026402 L 410 327.08623005218766 L 411 325.91863744193563 L 412 324.7571099510339 L 413 323.60174017512765 L 414 322.4526202189762 L 415 321.3098416891105 L 416 320.1734956865298 L 417 319.0436727994402 L 418 317.9204630960318 L 419 316.80395611730006 L 420 315.6942408699061 L 421 314.59140581908247 L 422 313.4955388815802 L 423 312.4067274186601 L 424 311.325058229129 L 425 310.25061754241926 L 426 309.1834910117159 L 427 308.1237637071272 L 428 307.07152010890394 L 429 306.02684410070435 L 430 304.98981896290684 L 431 303.9605273659713 L 432 302.93905136384865 L 433 301.9254723874393 L 434 300.91987123810185 L 435 299.92232808121184 L 436 298.93292243977066 L 437 297.9517331880662 L 438 296.97883854538543 L 439 296.01431606977815 L 440 295.058242651875 L 441 294.110694508757 L 442 293.1717471778802 L 443 292.24147551105375 L 444 291.3199536684727 L 445 290.40725511280607 L 446 289.5034526033406 L 447 288.6086181901803 L 448 287.72282320850286 L 449 286.84613827287274 L 450 285.978633271612 L 451 285.1203773612288 L 452 284.2714389609044 L 453 283.43188574703856 L 454 282.60178464785486 L 455 281.7812018380653 L 456 280.97020273359425 L 457 280.16885198636436 L 458 279.37721347914226 L 459 278.5953503204458 L 460 277.82332483951313 L 461 277.0611985813341 L 462 276.3090323017439 L 463 275.56688596257936 L 464 274.83481872689924 L 465 274.1128889542677 L 466 273.40115419610186 L 467 272.699671191084 L 468 272.00849586063816 L 469 271.32768330447266 L 470 270.65728779618695 L 471 269.99736277894544 L 472 269.3479608612172 L 473 268.7091338125814 L 474 268.08093255960097 L 475 267.4634071817624 L 476 266.85660690748387 L 477 266.2605801101903 L 478 265.67537430445736 L 479 265.1010361422237 L 480 264.5376114090718 L 481 263.9851450205781 L 482 263.44368101873215 L 483 262.91326256842603 L 484 262.3939319540128 L 485 261.88573057593624 L 486 261.3886989474298 L 487 260.9028766912874 L 488 260.42830253670456 L 489 259.965014316191 L 490 259.51304896255465 L 491 259.0724425059575 L 492 258.643230071043 L 493 258.22544587413654 L 494 257.81912322051716 L 495 257.42429450176286 L 496 257.0409911931683 L 497 256.6692438512356 L 498 256.30908211123824 L 499 255.960534684859 L 500 255.62362935790074 L 501 255.29839298807138 L 502 254.984851502843 L 503 254.6830298973847 L 504 254.39295223257034 L 505 254.11464163306007 L 506 253.84812028545713 L 507 253.593409436539 L 508 253.35052939156373 L 509 253.11949951265117 L 510 252.90033821723947 L 511 252.69306297661686 L 512 252.49769031452885 L 513 252.31423580586093 L 514 252.14271407539712 L 515 251.9831387966539 L 516 251.83552269079024 L 517 251.6998775255936 L 518 251.57621411454164 L 519 251.4645423159403 L 520 251.3648710321378 L 521 251.27720820881518 L 522 251.2015608343525 L 523 251.13793493927216 L 524 251.08633559575784 L 525 251.04676691725027 L 526 251.01923205811934 L 527 251.00373321341257 L 528 251.00027161868016 L 529 251.0088475498765 L 530 251.02946032333813 L 531 251.0621082958383 L 532 251.1067888647179 L 533 251.16349846809308 L 534 251.23223258513892 L 535 251.3129857364501 L 536 251.4057514844776 L 537 251.51052243404197 L 538 251.62729023292272 L 539 251.75604557252422 L 540 251.89677818861784 L 541 252.04947686216013 L 542 252.2141294201872 L 543 252.39072273678505 L 544 252.57924273413622 L 545 252.77967438364175 L 546 252.99200170711939 L 547 253.21620777807735 L 548 253.4522747230637 L 549 253.7001837230911 L 550 253.95991501513717 L 551 254.23144789371983 L 552 254.5147607125481 L 553 254.80983088624754 L 554 255.11663489216082 L 555 255.43514827222293 L 556 255.7653456349109 L 557 256.107200657268 L 558 256.46068608700216 L 559 256.8257737446586 L 560 257.2024345258661 L 561 257.5906384036573 L 562 257.9903544308622 L 563 258.40155074257575 L 564 258.8241945586973 L 565 259.2582521865445 L 566 259.70368902353897 L 567 260.16046955996455 L 568 260.62855738179843 L 569 261.10791517361406 L 570 261.5985047215555 L 571 262.10028691638433 L 572 262.6132217565968 L 573 263.1372683516131 L 574 263.67238492503725 L 575 264.2185288179868 L 576 264.77565649249436 L 577 265.3437235349778 L 578 265.9226846597812 L 579 266.5124937127848 L 580 267.1131036750843 L 581 267.7244666667392 L 582 268.3465339505901 L 583 268.9792559361433 L 584 269.6225821835246 L 585 270.27646140750016 L 586 270.94084148156486 L 587 271.6156694420979 L 588 272.3008914925846 L 589 272.99645300790564 L 590 273.70229853869137 L 591 274.4183718157418 L 592 275.144615754513 L 593 275.8809724596675 L 594 276.62738322968954 L 595 277.38378856156476 L 596 278.1501281555239 L 597 278.9263409198495 L 598 279.7123649757463 L 599 280.50813766227407 L 600 281.31359554134286 L 601 282.12867440277046 L 602 282.95330926940045 L 603 283.78743440228294 L 604 284.630983305915 L 605 285.4838887335409 L 606 286.34608269251396 L 607 287.21749644971635 L 608 288.09806053703835 L 609 288.9877047569163 L 610 289.88635818792875 L 611 290.7939491904506 L 612 291.7104054123631 L 613 292.6356537948229 L 614 293.56962057808533 L 615 294.51223130738504 L 616 295.4634108388708 L 617 296.4230833455966 L 618 297.39117232356597 L 619 298.36760059783086 L 620 299.3522903286443 L 621 300.3451630176653 L 622 301.3461395142169 L 623 302.35514002159545 L 624 303.3720841034328 L 625 304.39689069010814 L 626 305.4294780852102 L 627 306.46976397205106 L 628 307.51766542022756 L 629 308.5730988922331 L 630 309.635980250116 L 631 310.7062247621883 L 632 311.7837471097796 L 633 312.8684613940385 L 634 313.9602811427809 L 635 315.0591193173832 L 636 316.1648883197209 L 637 317.2774999991515 L 638 318.3968656595424 L 639 319.5228960663416 L 640 320.6555014536904 L 641 321.79459153158075 L 642 322.94007549305235 L 643 324.0918620214318 L 644 325.249859297612 L 645 326.41397500737247 L 646 327.5841163487382 L 647 328.7601900393773 L 648 329.94210232403816 L 649 331.1297589820231 L 650 332.3230653346994 L 651 333.5219262530471 L 652 334.72624616524274 L 653 335.9359290642783 L 654 337.15087851561395 L 655 338.3709976648669 L 656 339.5961892455318 L 657 340.8263555867348 L 658 342.0613986210197 L 659 343.3012198921661 L 660 344.5457205630382 L 661 345.79480142346307 L 662 347.0483628981411 L 663 348.3063050545827 L 664 349.56852761107587 L 665 350.83492994467923 L 666 352.10541109924503 L 667 353.3798697934664 L 668 354.6582044289512 L 669 355.94031309832206 L 670 357.22609359333984 L 671 358.51544341305174 L 672 359.8082597719622 L 673 361.1044396082273 L 674 362.4038795918707 L 675 363.70647613302043 L 676 365.0121253901676 L 677 366.32072327844446 L 678 367.6321654779216 L 679 368.946347441924 L 680 370.26316440536635 L 681 371.58251139310397 L 682 372.9042832283012 L 683 374.2283745408168 L 684 375.5546797756032 L 685 376.88309320112165 L 686 378.2135089177704 L 687 379.54582086632786 L 688 380.8799228364068 L 689 382.21570847492137 L 690 383.55307129456577 L 691 384.8919046823031 L 692 386.2321019078645 L 693 387.5735561322573 L 694 388.9161604162824 L 695 390.25980772905973 L 696 391.6043909565592 L 697 392.9498029101415 L 698 394.29593633510194 L 699 395.64268391922104 L 700 396.98993830131894 L 701 398.3375920798147 L 702 399.68553782128816 L 703 401.0336680690436 L 704 402.3818753516772 L 705 403.7300521916437 L 706 405.07809111382517 L 707 406.4258846540976 L 708 407.773325367899 L 709 409.12030583879454 L 710 410.4667186870387 L 711 411.81245657813673 L 712 413.15741223140066 L 713 414.5014784285016 L 714 415.84454802201685 L 715 417.18651394397205 L 716 418.52726921437636 L 717 419.8667069497503 L 718 421.20472037164717 L 719 422.54120281516475 L 720 423.87604773744886 L 721 425.2091487261862 L 722 426.5403995080882 L 723 427.86969395736287 L 724 429.1969261041742 L 725 430.52199014309116 L 726 431.84478044152144 L 727 433.1651915481331 L 728 434.48311820126014 L 729 435.79845533729474 L 730 437.1110980990625 L 731 438.42094184418096 L 732 439.7278821534026 L 733 441.03181483893826 L 734 442.3326359527632 L 735 443.6302417949034 L 736 444.9245289217028 L 737 446.2153941540697 L 738 447.5027345857016 L 739 448.7864475912892 L 740 450.06643083469754 L 741 451.34258227712417 L 742 452.6148001852329 L 743 453.882983139265 L 744 455.1470300411235 L 745 456.4068401224326 L 746 457.662312952571 L 747 458.9133484466785 L 748 460.15984687363397 L 749 461.40170886400585 L 750 462.6388354179745 L 751 463.87112791322375 L 752 465.0984881128026 L 753 466.3208181729576 L 754 467.53802065093214 L 755 468.7499985127345 L 756 469.9566551408733 L 757 471.15789434205993 L 758 472.3536203548772 L 759 473.54373785741234 L 760 474.7281519748571 L 761 475.9067682870705 L 762 477.079492836106 L 763 478.2462321337014 L 764 479.40689316873227 L 765 480.5613834146263 L 766 481.709610836739 L 767 482.85148389969163 L 768 483.9869115746674 L 769 485.1158033466686 L 770 486.23806922173196 L 771 487.3536197341036 L 772 488.4623659533704 L 773 489.5642194915497 L 774 490.6590925101356 L 775 491.7468977271013 L 776 492.827548423857 L 777 493.9009584521631 L 778 494.96704224099756 L 779 496.02571480337843 L 780 497.0768917431376 L 781 498.1204892616497 L 782 499.1564241645123 L 783 500.18461386817796 L 784 501.2049764065371 L 785 502.21743043745363 L 786 503.22189524924823 L 787 504.2182907671328 L 788 505.2065375595946 L 789 506.1865568447277 L 790 507.15827049651375 L 791 508.1216010510499 L 792 509.07647171272436 L 793 510.02280636033834 L 794 510.9605295531741 L 795 511.8895665370096 L 796 512.8098432500774 L 797 513.7212863289685 L 798 514.6238231144816 L 799 515.5173816574145 L 800 516.4018907243008 L 801 517.2772798030871 L 802 518.1434791087562 L 803 519.0004195888881 L 804 519.8480329291665 L 805 520.6862515588234 L 806 521.515008656027 L 807 522.3342381532079 L 808 523.1438747423258 L 809 523.9438538800765 L 810 524.7341117930364 L 811 525.5145854827472 L 812 526.2852127307374 L 813 527.0459321034826 L 814 527.7966829573035 L 815 528.5374054431987 L 816 529.2680405116178 L 817 529.9885299171672 L 818 530.6988162232544 L 819 531.3988428066659 L 820 532.0885538620819 L 821 532.7678944065246 L 822 533.4368102837415 L 823 534.0952481685225 L 824 534.7431555709514 L 825 535.38048084059 L 826 536.0071731705954 L 827 536.6231826017705 L 828 537.2284600265472 L 829 537.8229571928999 L 830 538.4066267081936 L 831 538.9794220429609 L 832 539.5412975346119 L 833 540.0922083910737 L 834 540.632110694362 L 835 541.160961404082 L 836 541.6787183608584 L 837 542.1853402896982 L 838 542.6807868032795 L 839 543.1650184051721 L 840 543.6379964929856 L 841 544.0996833614469 L 842 544.5500422054059 L 843 544.98903712277 L 844 545.4166331173654 L 845 545.8327961017279 L 846 546.2374928998195 L 847 546.6306912496735 L 848 547.0123598059665 L 849 547.3824681425169 L 850 547.7409867547108 L 851 548.0878870618538 L 852 548.4231414094495 L 853 548.7467230714041 L 854 549.058606252157 L 855 549.3587660887372 L 856 549.6471786527451 L 857 549.9238209522606 L 858 550.1886709336754 L 859 550.4417074834514 L 860 550.6829104298038 L 861 550.9122605443091 L 862 551.1297395434381 L 863 551.3353300900133 L 864 551.5290157945909 L 865 551.7107812167679 L 866 551.8806118664124 L 867 552.0384942048189 L 868 552.1844156457876 L 869 552.3183645566278 L 870 552.4403302590855 L 871 552.5503030301938 L 872 552.6482741030494 L 873 552.7342356675099 L 874 552.8081808708178 L 875 552.8701038181456 L 876 552.9199995730669 L 877 552.957864157949 L 878 552.9836945542703 L 879 552.9974887028615 L 880 552.9992455040683 L 881 552.988964817841 L 882 552.9666474637438 L 883 552.9322952208909 L 884 552.8859108278039 L 885 552.8274979821933 L 886 552.7570613406649 L 887 552.6746065183472 L 888 552.5801400884443 L 889 552.4736695817123 L 890 552.3552034858585 L 891 552.2247512448646 L 892 552.0823232582343 L 893 551.9279308801642 L 894 551.7615864186383 L 895 551.5833031344472 L 896 551.3930952401306 L 897 551.190977898845 L 898 550.9769672231536 L 899 550.7510802737434 L 900 550.5133350580638 L 901 550.2637505288923 L 902 550.0023465828224 L 903 549.7291440586781 L 904 549.4441647358528 L 905 549.1474313325728 L 906 548.838967504086 L 907 548.5187978407765 L 908 548.1869478662046 L 909 547.8434440350711 L 910 547.4883137311094 L 911 547.1215852649017 L 912 546.7432878716224 L 913 546.3534517087081 L 914 545.9521078534524 L 915 545.539288300529 L 916 545.1150259594417 L 917 544.6793546518995 L 918 544.2323091091217 L 919 543.7739249690686 L 920 543.3042387736003 L 921 542.8232879655641 L 922 542.3311108858093 L 923 541.8277467701305 L 924 541.3132357461404 L 925 540.7876188300703 L 926 540.2509379235006 L 927 539.7032358100204 L 928 539.1445561518166 L 929 538.5749434861939 L 930 537.9944432220234 L 931 537.4031016361234 L 932 536.8009658695701 L 933 536.1880839239388 L 934 535.5645046574788 L 935 534.9302777812169 L 936 534.2854538549958 L 937 533.6300842834424 L 938 532.9642213118707 L 939 532.2879180221164 L 940 531.6012283283058 L 941 530.9042069725567 L 942 530.1969095206159 L 943 529.4793923574289 L 944 528.7517126826446 L 945 528.0139285060554 L 946 527.2660986429738 L 947 526.5082827095425 L 948 525.7405411179823 L 949 524.9629350717762 L 950 524.1755265607906 L 951 523.3783783563326 L 952 522.571554006147 L 953 521.7551178293497 L 954 520.9291349113005 L 955 520.0936710984143 L 956 519.2487929929124 L 957 518.3945679475128 L 958 517.5310640600607 L 959 516.6583501680998 L 960 515.7764958433853 L 961 514.8855713863369 L 962 513.985647820435 L 963 513.0767968865587 L 964 512.1590910372669 L 965 511.2326034310218 L 966 510.29740792635755 L 967 509.353579075992 L 968 508.40119212088325 L 969 507.440322984232 L 970 506.47104826542846 L 971 505.4934452339468 L 972 504.50759182318416 L 973 503.51356662424894 L 974 502.51144887969485 L 975 501.5013184772042 L 976 500.4832559432194 L 977 499.4573424365229 L 978 498.42365974176835 L 979 497.3822902629598 L 980 496.33331701688303 L 981 495.2768236264874 L 982 494.2128943142196 L 983 493.1416138953097 L 984 492.0630677710091 L 985 490.9773419217838 L 986 489.8845229004586 L 987 488.78469782531795 L 988 487.67795437316107 L 989 486.56438077231223 L 990 485.44406579558745 L 991 484.31709875321707 L 992 483.18356948572745 L 993 482.0435683567772 L 994 480.8971862459547 L 995 479.74451454153274 L 996 478.5856451331835 L 997 477.4206704046529 L 998 476.249683226396 L 999 475.0727769481738 L 1000 473.8900453916109 L 1001 472.70158284271645 L 1002 471.50748404436774 L 1003 470.30784418875766 L 1004 469.1027589098056 L 1005 467.8923242755337 L 1006 466.67663678040947 L 1007 465.4557933376515 L 1008 464.22989127150527 L 1009 462.9990283094835 L 1010 461.76330257457613 L 1011 460.52281257742777 L 1012 459.2776572084843 L 1013 458.02793573011047 L 1014 456.7737477686752 L 1015 455.51519330661085 L 1016 454.252372674442 L 1017 452.9853865427874 L 1018 451.7143359143349 L 1019 450.43932211578897 L 1020 449.1604467897943 L 1021 447.8778118868313 L 1022 446.59151965708986 L 1023 445.30167264231784 L 1024 444.0083736676465 L 1025 442.71172583339325 L 1026 441.41183250684264 L 1027 440.1087973140069 L 1028 438.80272413136356 L 1029 437.49371707757535 L 1030 436.1818805051899 L 1031 434.8673189923209 L 1032 433.55013733431116 L 1033 432.2304405353781 L 1034 430.9083338002442 L 1035 429.58392252574845 L 1036 428.2573122924455 L 1037 426.92860885618825 L 1038 425.59791813969747 L 1039 424.26534622411776 L 1040 422.9309993405603 L 1041 421.5949838616355 L 1042 420.2574062929717 L 1043 418.9183732647253 L 1044 417.5779915230803 L 1045 416.2363679217387 L 1046 414.89360941340203 L 1047 413.54982304124513 L 1048 412.2051159303837 L 1049 410.859595279333 L 1050 409.5133683514629 L 1051 408.1665424664468 L 1052 406.81922499170656 L 1053 405.47152333385276 L 1054 404.1235449301225 L 1055 402.77539723981533 L 1056 401.4271877357256 L 1057 400.0790238955756 L 1058 398.7310131934471 L 1059 397.3832630912142 L 1060 396.0358810299761 L 1061 394.68897442149193 L 1062 393.3426506396191 L 1063 391.99701701175195 L 1064 390.65218081026677 L 1065 389.30824924397007 L 1066 387.9653294495516 L 1067 386.623528483044 L 1068 385.28295331128805 L 1069 383.94371080340613 L 1070 382.60590772228153 L 1071 381.2696507160483 L 1072 379.93504630958927 L 1073 378.6022008960437 L 1074 377.27122072832617 L 1075 375.9422119106555 L 1076 374.6152803900977 L 1077 373.2905319481182 L 1078 371.96807219215015 L 1079 370.64800654717516 L 1080 369.33044024731925 L 1081 368.01547832746337 L 1082 366.70322561487 L 1083 365.3937867208275 L 1084 364.0872660323092 L 1085 362.78376770365236 L 1086 361.4833956482555 L 1087 360.186253530294 L 1088 358.89244475645637 L 1089 357.60207246770045 L 1090 356.31523953103226 L 1091 355.03204853130393 L 1092 353.7526017630367 L 1093 352.477001222266 L 1094 351.2053485984104 L 1095 349.9377452661651 L 1096 348.6742922774201 L 1097 347.4150903532054 L 1098 346.16023987566047 L 1099 344.90984088003245 L 1100 343.66399304670153 L 1101 342.42279569323443 L 1102 341.18634776646695 L 1103 339.95474783461566 L 1104 338.7280940794214 L 1105 337.5064842883206 L 1106 336.290015846651 L 1107 335.0787857298876 L 1108 333.87289049591243 L 1109 332.6724262773165 L 1110 331.4774887737364 L 1111 330.28817324422596 L 1112 329.1045744996609 L 1113 327.92678689518164 L 1114 326.7549043226712 L 1115 325.5890202032702 L 1116 324.4292274799293 L 1117 323.2756186099999 L 1118 322.12828555786444 L 1119 320.9873197876034 L 1120 319.85281225570515 L 1121 318.72485340381485 L 1122 317.6035331515241 L 1123 316.4889408892031 L 1124 315.38116547087407 L 1125 314.2802952071289 L 1126 313.18641785808785 L 1127 312.09962062640403 L 1128 311.0199901503119 L 1129 309.9476124967201 L 1130 308.8825731543509 L 1131 307.8249570269242 L 1132 306.7748484263906 L 1133 305.73233106620825 L 1134 304.6974880546709 L 1135 303.67040188828173 L 1136 302.6511544451772 L 1137 301.63982697859956 L 1138 300.6365001104196 L 1139 299.6412538247099 L 1140 298.6541674613679 L 1141 297.6753197097912 L 1142 296.70478860260494 L 1143 295.7426515094408 L 1144 294.7889851307692 L 1145 293.8438654917848 L 1146 292.9073679363464 L 1147 291.9795671209696 L 1148 291.0605370088759 L 1149 290.15035086409654 L 1150 289.2490812456317 L 1151 288.3568000016662 L 1152 287.4735782638419 L 1153 286.5994864415875 L 1154 285.7345942165048 L 1155 284.87897053681445 L 1156 284.0326836118592 L 1157 283.1958009066664 L 1158 282.3683891365697 L 1159 281.5505142618905 L 1160 280.74224148268024 L 1161 279.94363523352183 L 1162 279.1547591783935 L 1163 278.3756762055936 L 1164 277.60644842272717 L 1165 276.84713715175474 L 1166 276.0978029241036 L 1167 275.3585054758431 L 1168 274.62930374292154 L 1169 273.9102558564683 L 1170 273.2014191381601 L 1171 272.5028500956505 L 1172 271.814604418066 L 1173 271.13673697156605 L 1174 270.4693017949697 L 1175 269.81235209544695 L 1176 269.16594024427786 L 1177 268.53011777267693 L 1178 267.90493536768565 L 1179 267.29044286813144 L 1180 266.68668926065476 L 1181 266.09372267580386 L 1182 265.5115903841978 L 1183 264.94033879275815 L 1184 264.38001344100945 L 1185 263.83065899744895 L 1186 263.29231925598566 L 1187 262.7650371324489 L 1188 262.2488546611678 L 1189 261.74381299161934 L 1190 261.24995238514884 L 1191 260.7673122117599 L 1192 260.295930946976 L 1193 259.83584616877334 L 1194 259.3870945545851 L 1195 258.9497118783776 L 1196 258.5237330077984 L 1197 258.10919190139657 L 1198 257.7061216059158 L 1199 257.3145542536598 L 1200 256.9345210599309 L 1201 256.5660523205411 L 1202 256.20917740939785 L 1203 255.8639247761614 L 1204 255.53032194397753 L 1205 255.2083955072831 L 1206 254.89817112968598 L 1207 254.5996735419194 L 1208 254.31292653987012 L 1209 254.03795298268184 L 1210 253.77477479093253 L 1211 253.52341294488713 L 1212 253.28388748282495 L 1213 253.05621749944237 L 1214 252.8404211443305 L 1215 252.63651562052826 L 1216 252.44451718315133 L 1217 252.26444113809586 L 1218 252.0963018408185 L 1219 251.94011269519208 L 1220 251.79588615243696 L 1221 251.66363371012838 L 1222 251.54336591128006 L 1223 251.43509234350364 L 1224 251.33882163824427 L 1225 251.25456147009265 L 1226 251.18231855617316 L 1227 251.12209865560845 L 1228 251.0739065690602 L 1229 251.0377461383465 L 1230 251.01362024613567 L 1231 251.00153081571622 L 1232 251.00147881084376 L 1233 251.0134642356641 L 1234 251.0374861347128 L 1235 251.0735425929915 L 1236 251.12163073612055 L 1237 251.18174673056808 L 1238 251.25388578395564 L 1239 251.33804214544028 L 1240 251.43420910617294 L 1241 251.54237899983335 L 1242 251.66254320324106 L 1243 251.79469213704303 L 1244 251.9388152664771 L 1245 252.09490110221196 L 1246 252.26293720126304 L 1247 252.44291016798442 L 1248 252.63480565513663 L 1249 252.83860836503055 L 1250 253.05430205074697 L 1251 253.2818695174314 L 1252 253.52129262366532 L 1253 253.77255228291207 L 1254 254.0356284650385 L 1255 254.3105001979118 L 1256 254.59714556907127 L 1257 254.89554172747526 L 1258 255.20566488532265 L 1259 255.52749031994946 L 1260 255.86099237579953 L 1261 256.2061444664697 L 1262 256.56291907682953 L 1263 256.9312877652144 L 1264 257.31122116569315 L 1265 257.7026889904089 L 1266 258.10566003199347 L 1267 258.5201021660557 L 1268 258.945982353742 L 1269 259.38326664436994 L 1270 259.8319201781352 L 1271 260.2919071888905 L 1272 260.7631910069964 L 1273 261.2457340622451 L 1274 261.73949788685525 L 1275 262.2444431185385 L 1276 262.76052950363766 L 1277 263.28771590033534 L 1278 263.82596028193393 L 1279 264.3752197402059 L 1280 264.93545048881447 L 1281 265.5066078668041 L 1282 266.0886463421606 L 1283 266.68151951544144 L 1284 267.2851801234742 L 1285 267.8995800431246 L 1286 268.5246702951324 L 1287 269.1604010480165 L 1288 269.8067216220473 L 1289 270.4635804932865 L 1290 271.13092529769506 L 1291 271.80870283530703 L 1292 272.4968590744712 L 1293 273.19533915615784 L 1294 273.9040873983323 L 1295 274.6230473003941 L 1296 275.35216154768074 L 1297 276.09137201603704 L 1298 276.8406197764484 L 1299 277.5998450997392 L 1300 278.3689874613332 L 1301 279.1479855460796 L 1302 279.9367772531408 L 1303 280.7352997009424 L 1304 281.54348923218674 L 1305 282.36128141892726 L 1306 283.1886110677047 L 1307 284.02541222474383 L 1308 284.87161818121206 L 1309 285.7271614785368 L 1310 286.59197391378325 L 1311 287.4659865450916 L 1312 288.3491296971729 L 1313 289.2413329668635 L 1314 290.14252522873727 L 1315 291.05263464077626 L 1316 291.9715886500973 L 1317 292.89931399873615 L 1318 293.8357367294873 L 1319 294.78078219179986 L 1320 295.73437504772886 L 1321 296.6964392779404 L 1322 297.66689818777263 L 1323 298.6456744133494 L 1324 299.63268992774766 L 1325 300.6278660472176 L 1326 301.63112343745536 L 1327 302.64238211992745 L 1328 303.661561478246 L 1329 304.6885802645966 L 1330 305.7233566062143 L 1331 306.7658080119106 L 1332 307.81585137864977 L 1333 308.8734029981737 L 1334 309.938378563675 L 1335 311.01069317651707 L 1336 312.0902613530037 L 1337 313.1769970311926 L 1338 314.2708135777564 L 1339 315.3716237948889 L 1340 316.47933992725655 L 1341 317.5938736689943 L 1342 318.7151361707446 L 1343 319.8430380467411 L 1344 320.97748938193433 L 1345 322.1183997391591 L 1346 323.2656781663445 L 1347 324.41923320376435 L 1348 325.5789728913285 L 1349 326.7448047759127 L 1350 327.9166359187307 L 1351 329.0943729027417 L 1352 330.2779218400983 L 1353 331.46718837963044 L 1354 332.6620777143677 L 1355 333.86249458909685 L 1356 335.0683433079548 L 1357 336.279527742059 L 1358 337.4959513371691 L 1359 338.7175171213852 L 1360 339.9441277128778 L 1361 341.17568532765114 L 1362 342.4120917873387 L 1363 343.65324852702867 L 1364 344.8990566031233 L 1365 346.14941670122533 L 1366 347.4042291440554 L 1367 348.6633938993984 L 1368 349.92681058807773 L 1369 351.1943784919579 L 1370 352.46599656197236 L 1371 353.741563426181 L 1372 355.0209773978498 L 1373 356.3041364835578 L 1374 357.5909383913279 L 1375 358.88128053878125 L 1376 360.1750600613156 L 1377 361.47217382030414 L 1378 362.7725184113193 L 1379 364.0759901723752 L 1380 365.3824851921913 L 1381 366.6918993184765 L 1382 368.0041281662317 L 1383 369.3190671260719 L 1384 370.63661137256406 L 1385 371.95665587258554 L 1386 373.27909539369614 L 1387 374.60382451252724 L 1388 375.9307376231861 L 1389 377.2597289456746 L 1390 378.59069253432244 L 1391 379.9235222862314 L 1392 381.25811194973585 L 1393 382.59435513287167 L 1394 383.93214531185816 L 1395 385.2713758395898 L 1396 386.611939954138 L 1397 387.9537307872626 L 1398 389.29664137292997 L 1399 390.64056465584184 L 1400 391.9853934999687 L 1401 393.33102069709065 L 1402 394.67733897534396 L 1403 396.0242410077729 L 1404 397.37161942088557 L 1405 398.7193668032129 L 1406 400.06737571387265 L 1407 401.41553869113375 L 1408 402.76374826098305 L 1409 404.1118969456931 L 1410 405.45987727239003 L 1411 406.8075817816217 L 1412 408.15490303592304 L 1413 409.5017336283822 L 1414 410.8479661912024 L 1415 412.1934934042607 L 1416 413.53820800366424 L 1417 414.88200279030053 L 1418 416.22477063838386 L 1419 417.5664045039941 L 1420 418.9067974336116 L 1421 420.2458425726426 L 1422 421.5834331739375 L 1423 422.91946260630107 L 1424 424.25382436299236 L 1425 425.586412070216 L 1426 426.9171194956011 L 1427 428.24584055667145 L 1428 429.5724693293012 L 1429 430.8969000561595 L 1430 432.2190271551409 L 1431 433.5387452277829 L 1432 434.85594906766784 L 1433 436.1705336688092 L 1434 437.4823942340238 L 1435 438.7914261832853 L 1436 440.0975251620615 L 1437 441.40058704963315 L 1438 442.7005079673944 L 1439 443.9971842871343 L 1440 445.2905126392967 L 1441 446.5803899212225 L 1442 447.86671330536745 L 1443 449.1493802475003 L 1444 450.4282884948769 L 1445 451.7033360943921 L 1446 452.97442140070757 L 1447 454.24144308435336 L 1448 455.504300139808 L 1449 456.7628918935489 L 1450 458.01711801207864 L 1451 459.2668785099231 L 1452 460.51207375760254 L 1453 461.75260448957374 L 1454 462.9883718121429 L 1455 464.2192772113502 L 1456 465.4452225608228 L 1457 466.66611012959726 L 1458 467.88184258991066 L 1459 469.09232302495946 L 1460 470.29745493662574 L 1461 471.49714225316916 L 1462 472.69128933688694 L 1463 473.879800991737 L 1464 475.0625824709274 L 1465 476.2395394844691 L 1466 477.41057820669295 L 1467 478.5756052837293 L 1468 479.7345278409495 L 1469 480.8872534903707 L 1470 482.0336903380205 L 1471 483.1737469912623 L 1472 484.3073325660816 L 1473 485.43435669433063 L 1474 486.55472953093306 L 1475 487.6683617610452 L 1476 488.7751646071775 L 1477 489.8750498362708 L 1478 490.9679297667306 L 1479 492.0537172754167 L 1480 493.13232580458873 L 1481 494.20366936880646 L 1482 495.267662561784 L 1483 496.324220563199 L 1484 497.373259145454 L 1485 498.4146946803912 L 1486 499.4484441459588 L 1487 500.47442513282977 L 1488 501.49255585097154 L 1489 502.5027551361655 L 1490 503.5049424564782 L 1491 504.49903791868087 L 1492 505.4849622746184 L 1493 506.4626369275269 L 1494 507.43198393829925 L 1495 508.39292603169895 L 1496 509.3453866025191 L 1497 510.2892897216908 L 1498 511.22456014233506 L 1499 512.151123305762 L 1500 513.0689053474141 L 1501 513.9778331027551 L 1502 514.8778341131024 L 1503 515.7688366314025 L 1504 516.6507696279524 L 1505 517.5235627960607 L 1506 518.3871465576524 L 1507 519.2414520688163 L 1508 520.0864112252925 L 1509 520.921956667902 L 1510 521.7480217879158 L 1511 522.5645407323661 L 1512 523.3714484092948 L 1513 524.1686804929433 L 1514 524.9561734288802 L 1515 525.7338644390678 L 1516 526.501691526867 L 1517 527.2595934819789 L 1518 528.0075098853249 L 1519 528.7453811138637 L 1520 529.4731483453431 L 1521 530.1907535629907 L 1522 530.8981395601378 L 1523 531.5952499447806 L 1524 532.2820291440748 L 1525 532.9584224087673 L 1526 533.6243758175592 L 1527 534.2798362814051 L 1528 534.9247515477452 L 1529 535.5590702046711 L 1530 536.1827416850238 L 1531 536.7957162704246 L 1532 537.3979450952397 L 1533 537.9893801504749 L 1534 538.5699742876029 L 1535 539.139681222322 L 1536 539.6984555382459 L 1537 540.2462526905242 L 1538 540.7830290093932 L 1539 541.308741703658" stroke-linecap="round" stroke-linejoin="round" stroke-miterlimit="10"/></g></svg>