<svg version="1.1" xmlns="http://www.w3.org/2000/svg" xmlns:xlink="http://www.w3.org/1999/xlink" width="1560" height="804"><defs/><g><path fill="none" stroke="#02063B" paint-order="fill stroke markers" d=" M 20 414.3597228635053 L 21 414.9748438345012 L 22 415.58954593898983 L 23 416.203809332561 L 24 416.81761418496734 L 25 417.43094068076465 L 26 418.04376901995147 L 27 418.6560794186082 L 28 419.26785210953614 L 29 419.8790673428951 L 30 420.48970538684154 L 31 421.0997465281651 L 32 421.70917107292536 L 33 422.3179593470874 L 34 422.92609169715706 L 35 423.53354849081524 L 36 424.14031011755196 L 37 424.7463569892992 L 38 425.3516695410633 L 39 425.95622823155685 L 40 426.56001354382903 L 41 427.1630059858962 L 42 427.76518609137077 L 43 428.3665344200899 L 44 428.967031558743 L 45 429.5666581214982 L 46 430.16539475062876 L 47 430.7632221171373 L 48 431.36012092138026 L 49 431.95607189369093 L 50 432.55105579500133 L 51 433.14505341746343 L 52 433.73804558506924 L 53 434.33001315426975 L 54 434.9209370145931 L 55 435.5107980892615 L 56 436.09957733580694 L 57 436.68725574668605 L 58 437.27381434989377 L 59 437.85923420957573 L 60 438.44349642663957 L 61 439.026582139365 L 62 439.608472524013 L 63 440.1891487954331 L 64 440.76859220767 L 65 441.3467840545689 L 66 441.9237056703792 L 67 442.499338430357 L 68 443.0736637513667 L 69 443.6466630924806 L 70 444.21831795557756 L 71 444.7886098859402 L 72 445.3575204728507 L 73 445.92503135018507 L 74 446.4911241970061 L 75 447.05578073815485 L 76 447.6189827448406 L 77 448.18071203522925 L 78 448.74095047503044 L 79 449.29967997808285 L 80 449.8568825069381 L 81 450.4125400734432 L 82 450.96663473932097 L 83 451.5191486167494 L 84 452.07006386893903 L 85 452.6193627107087 L 86 453.16702740905987 L 87 453.7130402837489 L 88 454.25738370785814 L 89 454.80004010836444 L 90 455.34099196670707 L 91 455.8802218193528 L 92 456.41771225836004 L 93 456.9534459319404 L 94 457.4874055450193 L 95 458.0195738597941 L 96 458.5499336962904 L 97 459.078467932917 L 98 459.6051595070186 L 99 460.12999141542616 L 100 460.65294671500664 L 101 461.1740085232091 L 102 461.6931600186104 L 103 462.2103844414578 L 104 462.7256650942102 L 105 463.2389853420774 L 106 463.75032861355663 L 107 464.25967840096786 L 108 464.7670182609867 L 109 465.2723318151751 L 110 465.77560275051036 L 111 466.2768148199114 L 112 466.77595184276356 L 113 467.27299770544073 L 114 467.76793636182583 L 115 468.26075183382846 L 116 468.75142821190116 L 117 469.2399496555525 L 118 469.726300393859 L 119 470.2104647259738 L 120 470.6924270216339 L 121 471.17217172166437 L 122 471.64968333848105 L 123 472.12494645659024 L 124 472.5979457330865 L 125 473.0686658981478 L 126 473.5370917555288 L 127 474.00320818305113 L 128 474.4670001330917 L 129 474.92845263306833 L 130 475.3875507859235 L 131 475.84427977060466 L 132 476.2986248425434 L 133 476.7505713341309 L 134 477.20010465519164 L 135 477.64721029345446 L 136 478.091873815021 L 137 478.53408086483176 L 138 478.9738171671293 L 139 479.41106852591935 L 140 479.845820825429 L 141 480.2780600305623 L 142 480.7077721873535 L 143 481.13494342341767 L 144 481.55955994839803 L 145 481.9816080544117 L 146 482.4010741164919 L 147 482.81794459302785 L 148 483.2322060262021 L 149 483.6438450424248 L 150 484.0528483527655 L 151 484.45920275338227 L 152 484.8628951259477 L 153 485.2639124380727 L 154 485.66224174372695 L 155 486.0578701836571 L 156 486.45078498580153 L 157 486.8409734657033 L 158 487.2284230269189 L 159 487.6131211614254 L 160 487.99505545002404 L 161 488.3742135627414 L 162 488.7505832592269 L 163 489.1241523891487 L 164 489.4949088925854 L 165 489.86284080041554 L 166 490.227936234704 L 167 490.5901834090854 L 168 490.94957062914483 L 169 491.306086292795 L 170 491.6597188906511 L 171 492.01045700640225 L 172 492.35828931718 L 173 492.70320459392394 L 174 493.0451917017442 L 175 493.384239600281 L 176 493.72033734406074 L 177 494.0534740828497 L 178 494.38363906200425 L 179 494.71082162281795 L 180 495.0350112028657 L 181 495.35619733634456 L 182 495.67436965441203 L 183 495.98951788552034 L 184 496.30163185574827 L 185 496.6107014891296 L 186 496.91671680797833 L 187 497.21966793321076 L 188 497.5195450846645 L 189 497.8163385814142 L 190 498.110038842084 L 191 498.4006363851569 L 192 498.6881218292807 L 193 498.9724858935714 L 194 499.25371939791205 L 195 499.53181326324955 L 196 499.80675851188767 L 197 500.078546267777 L 198 500.34716775680135 L 199 500.6126143070609 L 200 500.87487734915237 L 201 501.13394841644555 L 202 501.3898191453567 L 203 501.64248127561854 L 204 501.89192665054685 L 205 502.13814721730375 L 206 502.38113502715794 L 207 502.62088223574085 L 208 502.85738110330044 L 209 503.0906239949506 L 210 503.3206033809177 L 211 503.54731183678405 L 212 503.770742043727 L 213 503.9908867887558 L 214 504.2077389649439 L 215 504.4212915716589 L 216 504.6315377147882 L 217 504.8384706069615 L 218 505.0420835677703 L 219 505.2423700239834 L 220 505.4393235097589 L 221 505.6329376668531 L 222 505.8232062448257 L 223 506.01012310124185 L 224 506.19368220187005 L 225 506.3738776208771 L 226 506.55070354101963 L 227 506.72415425383156 L 228 506.8942241598085 L 229 507.06090776858866 L 230 507.22419969912994 L 231 507.3840946798837 L 232 507.54058754896477 L 233 507.6936732543185 L 234 507.84334685388353 L 235 507.98960351575136 L 236 508.13243851832243 L 237 508.27184725045845 L 238 508.4078252116314 L 239 508.5403680120687 L 240 508.6694713728949 L 241 508.7951311262701 L 242 508.91734321552394 L 243 509.03610369528724 L 244 509.1514087316188 L 245 509.26325460212945 L 246 509.3716376961023 L 247 509.47655451460895 L 248 509.5780016706228 L 249 509.6759758891284 L 250 509.77047400722677 L 251 509.8614929742379 L 252 509.94902985179914 L 253 510.03308181396 L 254 510.11364614727347 L 255 510.1907202508835 L 256 510.264301636609 L 257 510.3343879290242 L 258 510.4009768655355 L 259 510.464066296454 L 260 510.5236541850656 L 261 510.5797386076961 L 262 510.6323177537738 L 263 510.6813899258876 L 264 510.72695353984193 L 265 510.7690071247081 L 266 510.80754932287135 L 267 510.84257889007506 L 268 510.8740946954607 L 269 510.9020957216045 L 270 510.9265810645501 L 271 510.94754993383776 L 272 510.9650016525303 L 273 510.97893565723433 L 274 510.98935149811865 L 275 510.99624883892915 L 276 510.999627456999 L 277 510.99948724325657 L 278 510.99582820222815 L 279 510.98865045203866 L 280 510.9779542244071 L 281 510.9637398646395 L 282 510.9460078316175 L 283 510.92475869778406 L 284 510.89999314912416 L 285 510.87171198514335 L 286 510.83991611884164 L 287 510.804606576684 L 288 510.7657844985674 L 289 510.7234511377839 L 290 510.6776078609801 L 291 510.6282561481132 L 292 510.5753975924031 L 293 510.519033900281 L 294 510.4591668913344 L 295 510.39579849824815 L 296 510.3289307667423 L 297 510.2585658555059 L 298 510.18470603612724 L 299 510.1073536930208 L 300 510.02651132335006 L 301 509.9421815369468 L 302 509.85436705622715 L 303 509.7630707161034 L 304 509.6682954638927 L 305 509.57004435922175 L 306 509.46832057392805 L 307 509.36312739195773 L 308 509.25446820925913 L 309 509.1423465336735 L 310 509.02676598482174 L 311 508.90773029398724 L 312 508.7852433039958 L 313 508.6593089690914 L 314 508.52993135480847 L 315 508.3971146378408 L 316 508.26086310590665 L 317 508.1211811576102 L 318 507.9780733022998 L 319 507.8315441599221 L 320 507.68159846087326 L 321 507.5282410458459 L 322 507.371476865673 L 323 507.2113109811681 L 324 507.0477485629617 L 325 506.88079489133463 L 326 506.7104553560475 L 327 506.53673545616647 L 328 506.3596407998861 L 329 506.1791771043481 L 330 505.99535019545664 L 331 505.8081660076905 L 332 505.61763058391136 L 333 505.42375007516887 L 334 505.2265307405018 L 335 505.02597894673625 L 336 504.8221011682799 L 337 504.61490398691325 L 338 504.4043940915768 L 339 504.1905782781555 L 340 503.973463449259 L 341 503.753056613999 L 342 503.529364887763 L 343 503.3023954919845 L 344 503.07215575390995 L 345 502.83865310636213 L 346 502.6018950875002 L 347 502.36188934057645 L 348 502.11864361368947 L 349 501.87216575953397 L 350 501.6224637351474 L 351 501.3695456016529 L 352 501.1134195239993 L 353 500.8540937706973 L 354 500.5915767135528 L 355 500.3258768273962 L 356 500.0570026898092 L 357 499.784962980848 L 358 499.50976648276236 L 359 499.23142207971307 L 360 498.94993875748423 L 361 498.66532560319393 L 362 498.3775918050003 L 363 498.08674665180524 L 364 497.7927995329543 L 365 497.49575993793394 L 366 497.1956374560647 L 367 496.89244177619196 L 368 496.58618268637315 L 369 496.27687007356144 L 370 495.9645139232871 L 371 495.6491243193345 L 372 495.33071144341716 L 373 495.0092855748488 L 374 494.68485709021127 L 375 494.35743646302 L 376 494.02703426338564 L 377 493.6936611576728 L 378 493.35732790815575 L 379 493.01804537267105 L 380 492.675824504267 L 381 492.33067635084984 L 382 491.98261205482754 L 383 491.63164285274956 L 384 491.27778007494464 L 385 490.92103514515435 L 386 490.5614195801651 L 387 490.19894498943563 L 388 489.8336230747227 L 389 489.4654656297031 L 390 489.09448453959294 L 391 488.72069178076396 L 392 488.344099420357 L 393 487.96471961589225 L 394 487.58256461487696 L 395 487.19764675441 L 396 486.80997846078344 L 397 486.4195722490815 L 398 486.0264407227768 L 399 485.6305965733228 L 400 485.2320525797448 L 401 484.8308216082269 L 402 484.42691661169704 L 403 484.0203506294084 L 404 483.6111367865189 L 405 483.1992882936671 L 406 482.78481844654596 L 407 482.36774062547346 L 408 481.94806829496093 L 409 481.525815003278 L 410 481.1009943820154 L 411 480.673620145645 L 412 480.24370609107683 L 413 479.81126609721383 L 414 479.3763141245039 L 415 478.9388642144888 L 416 478.4989304893513 L 417 478.05652715145925 L 418 477.6116684829066 L 419 477.164368845053 L 420 476.7146426780596 L 421 476.26250450042323 L 422 475.8079689085075 L 423 475.3510505760719 L 424 474.89176425379753 L 425 474.43012476881154 L 426 473.966147024208 L 427 473.4998459985669 L 428 473.0312367454709 L 429 472.56033439301876 L 430 472.08715414333756 L 431 471.61171127209155 L 432 471.1340211279892 L 433 470.65409913228746 L 434 470.1719607782944 L 435 469.68762163086836 L 436 469.20109732591607 L 437 468.71240356988744 L 438 468.22155613926896 L 439 467.728570880074 L 440 467.2334637073312 L 441 466.7362506045713 L 442 466.2369476233104 L 443 465.7355708825321 L 444 465.2321365681672 L 445 464.7266609325712 L 446 464.21916029399915 L 447 463.70965103607966 L 448 463.1981496072852 L 449 462.6846725204016 L 450 462.16923635199487 L 451 461.6518577418757 L 452 461.1325533925629 L 453 460.6113400687437 L 454 460.0882345967326 L 455 459.5632538639285 L 456 459.03641481826924 L 457 458.50773446768426 L 458 457.97722987954614 L 459 457.44491818011903 L 460 456.91081655400615 L 461 456.3749422435948 L 462 455.8373125484997 L 463 455.29794482500483 L 464 454.7568564855028 L 465 454.2140649979326 L 466 453.66958788521623 L 467 453.1234427246925 L 468 452.5756471475498 L 469 452.02621883825685 L 470 451.4751755339918 L 471 450.92253502406965 L 472 450.368315149368 L 473 449.812533801751 L 474 449.25520892349175 L 475 448.6963585066932 L 476 448.13600059270703 L 477 447.5741532715516 L 478 447.0108346813277 L 479 446.44606300763303 L 480 445.87985648297513 L 481 445.3122333861828 L 482 444.74321204181604 L 483 444.1728108195745 L 484 443.6010481337041 L 485 443.0279424424033 L 486 442.4535122472263 L 487 441.8777760924865 L 488 441.30075256465744 L 489 440.7224602917731 L 490 440.142917942826 L 491 439.56214422716505 L 492 438.9801578938912 L 493 438.39697773125243 L 494 437.8126225660371 L 495 437.2271112629659 L 496 436.6404627240833 L 497 436.0526958881471 L 498 435.4638297300171 L 499 434.87388326004225 L 500 434.28287552344744 L 501 433.6908255997182 L 502 433.0977526019852 L 503 432.50367567640666 L 504 431.9086140015508 L 505 431.31258678777647 L 506 430.7156132766129 L 507 430.11771274013853 L 508 429.51890448035925 L 509 428.9192078285846 L 510 428.3186421448042 L 511 427.7172268170627 L 512 427.11498126083353 L 513 426.51192491839265 L 514 425.9080772581904 L 515 425.3034577742234 L 516 424.6980859854048 L 517 424.0919814349345 L 518 423.4851636896682 L 519 422.87765233948556 L 520 422.2694669966578 L 521 421.6606272952148 L 522 421.051152890311 L 523 420.4410634575909 L 524 419.8303786925539 L 525 419.2191183099186 L 526 418.60730204298625 L 527 417.9949496430037 L 528 417.3820808785255 L 529 416.76871553477645 L 530 416.15487341301207 L 531 415.54057432987975 L 532 414.92583811677895 L 533 414.31068461922115 L 534 413.6951336961887 L 535 413.0792052194943 L 536 412.46291907313906 L 537 411.8462951526708 L 538 411.2293533645417 L 539 410.6121136254655 L 540 409.9945958617748 L 541 409.3768200087779 L 542 408.7588060101144 L 543 408.14057381711257 L 544 407.5221433881443 L 545 406.9035346879811 L 546 406.2847676871498 L 547 405.66586236128745 L 548 405.0468386904968 L 549 404.4277166587012 L 550 403.8085162529989 L 551 403.1892574630189 L 552 402.5699602802748 L 553 401.95064469751946 L 554 401.33133070809987 L 555 400.71203830531175 L 556 400.09278748175353 L 557 399.47359822868185 L 558 398.85449053536524 L 559 398.23548438843943 L 560 397.61659977126203 L 561 396.997856663267 L 562 396.3792750393203 L 563 395.76087486907454 L 564 395.1426761163244 L 565 394.5246987383624 L 566 393.9069626853343 L 567 393.28948789959503 L 568 392.6722943150654 L 569 392.0554018565879 L 570 391.4388304392838 L 571 390.82259996791043 L 572 390.2067303362182 L 573 389.5912414263085 L 574 388.97615310799205 L 575 388.36148523814705 L 576 387.7472576600787 L 577 387.13349020287797 L 578 386.5202026807819 L 579 385.9074148925339 L 580 385.29514662074416 L 581 384.68341763125164 L 582 384.0722476724857 L 583 383.46165647482815 L 584 382.85166374997704 L 585 382.24228919030986 L 586 381.63355246824784 L 587 381.02547323562084 L 588 380.4180711230332 L 589 379.8113657392296 L 590 379.2053766704625 L 591 378.60012347985923 L 592 377.99562570679115 L 593 377.39190286624233 L 594 376.7889744481796 L 595 376.1868599169237 L 596 375.5855787105207 L 597 374.9851502401141 L 598 374.38559388931884 L 599 373.7869290135954 L 600 373.1891749396244 L 601 372.5923509646835 L 602 371.9964763560235 L 603 371.40157035024725 L 604 370.80765215268815 L 605 370.21474093679 L 606 369.62285584348854 L 607 369.032015980593 L 608 368.4422404221695 L 609 367.8535482079253 L 610 367.2659583425942 L 611 366.67948979532264 L 612 366.09416149905786 L 613 365.5099923499361 L 614 364.9270012066732 L 615 364.3452068899553 L 616 363.7646281818314 L 617 363.1852838251072 L 618 362.6071925227397 L 619 362.03037293723366 L 620 361.454843690039 L 621 360.8806233609498 L 622 360.3077304875042 L 623 359.73618356438635 L 624 359.16600104282884 L 625 358.5972013300176 L 626 358.02980278849714 L 627 357.4638237355782 L 628 356.8992824427462 L 629 356.33619713507125 L 630 355.77458599062 L 631 355.2144671398687 L 632 354.6558586651181 L 633 354.0987785999093 L 634 353.5432449284419 L 635 352.98927558499327 L 636 352.4368884533397 L 637 351.886101366179 L 638 351.33693210455465 L 639 350.78939839728196 L 640 350.2435179203759 L 641 349.6993082964799 L 642 349.15678709429756 L 643 348.61597182802507 L 644 348.076879956786 L 645 347.53952888406764 L 646 347.00393595715906 L 647 346.47011846659115 L 648 345.93809364557853 L 649 345.407878669463 L 650 344.8794906551593 L 651 344.35294666060247 L 652 343.8282636841969 L 653 343.3054586642679 L 654 342.7845484785148 L 655 342.26554994346606 L 656 341.7484798139363 L 657 341.23335478248543 L 658 340.72019147888005 L 659 340.20900646955613 L 660 339.69981625708454 L 661 339.19263727963806 L 662 338.6874859104611 L 663 338.1843784573404 L 664 337.68333116207947 L 665 337.1843601999736 L 666 336.68748167928777 L 667 336.192711640737 L 668 335.700066056968 L 669 335.20956083204385 L 670 334.72121180093063 L 671 334.23503472898585 L 672 333.75104531144984 L 673 333.2692591729389 L 674 332.78969186694104 L 675 332.31235887531363 L 676 331.8372756077839 L 677 331.36445740145103 L 678 330.8939195202916 L 679 330.42567715466635 L 680 329.9597454208299 L 681 329.4961393604431 L 682 329.03487394008675 L 683 328.5759640507792 L 684 328.11942450749495 L 685 327.665270048687 L 686 327.21351533581037 L 687 326.76417495284954 L 688 326.31726340584703 L 689 325.87279512243526 L 690 325.430784451371 L 691 324.99124566207195 L 692 324.55419294415606 L 693 324.11964040698354 L 694 323.6876020792013 L 695 323.2580919082903 L 696 322.8311237601148 L 697 322.4067114184752 L 698 321.9848685846628 L 699 321.56560887701755 L 700 321.1489458304885 L 701 320.7348928961967 L 702 320.3234634410009 L 703 319.9146707470664 L 704 319.5085280114358 L 705 319.10504834560334 L 706 318.7042447750913 L 707 318.30613023902976 L 708 317.91071758973874 L 709 317.5180195923133 L 710 317.1280489242115 L 711 316.7408181748451 L 712 316.3563398451733 L 713 315.97462634729874 L 714 315.59569000406714 L 715 315.2195430486696 L 716 314.84619762424734 L 717 314.47566578349984 L 718 314.1079594882959 L 719 313.7430906092869 L 720 313.38107092552457 L 721 313.02191212407973 L 722 312.6656257996656 L 723 312.3122234542632 L 724 311.9617164967503 L 725 311.61411624253265 L 726 311.2694339131794 L 727 310.92768063606 L 728 310.5888674439858 L 729 310.2530052748531 L 730 309.9201049712906 L 731 309.5901772803091 L 732 309.2632328529548 L 733 308.939282243965 L 734 308.618335911428 L 735 308.30040421644486 L 736 307.9854974227952 L 737 307.67362569660605 L 738 307.3647991060232 L 739 307.0590276208866 L 740 306.75632111240816 L 741 306.4566893528533 L 742 306.16014201522546 L 743 305.8666886729538 L 744 305.57633879958394 L 745 305.28910176847256 L 746 305.0049868524843 L 747 304.7240032236928 L 748 304.4461599530844 L 749 304.1714660102653 L 750 303.89993026317217 L 751 303.6315614777856 L 752 303.36636831784733 L 753 303.1043593445804 L 754 302.845543016413 L 755 302.5899276887051 L 756 302.3375216134788 L 757 302.08833293915234 L 758 301.8423697102762 L 759 301.5996398672744 L 760 301.3601512461873 L 761 301.1239115784191 L 762 300.89092849048825 L 763 300.66120950378087 L 764 300.43476203430845 L 765 300.2115933924681 L 766 299.9917107828065 L 767 299.77512130378767 L 768 299.5618319475634 L 769 299.3518495997479 L 770 299.1451810391951 L 771 298.9418329377802 L 772 298.74181186018404 L 773 298.5451242636813 L 774 298.35177649793195 L 775 298.1617748047763 L 776 297.97512531803346 L 777 297.79183406330344 L 778 297.6119069577725 L 779 297.4353498100222 L 780 297.26216831984175 L 781 297.0923680780442 L 782 296.92595456628584 L 783 296.7629331568893 L 784 296.6033091126699 L 785 296.4470875867661 L 786 296.2942736224729 L 787 296.144872153079 L 788 295.99888800170777 L 789 295.8563258811614 L 790 295.7171903937686 L 791 295.58148603123624 L 792 295.44921717450444 L 793 295.3203880936047 L 794 295.1950029475227 L 795 295.0730657840634 L 796 294.9545805397206 L 797 294.8395510395502 L 798 294.727980997046 L 799 294.61987401402064 L 800 294.51523358048865 L 801 294.41406307455406 L 802 294.3163657623015 L 803 294.2221447976903 L 804 294.1314032224533 L 805 294.044143965998 L 806 293.9603698453125 L 807 293.8800835648744 L 808 293.8032877165632 L 809 293.72998477957714 L 810 293.6601771203528 L 811 293.5938669924888 L 812 293.5310565366731 L 813 293.4717477806138 L 814 293.4159426389738 L 815 293.36364291330875 L 816 293.3148502920093 L 817 293.26956635024624 L 818 293.2277925499196 L 819 293.18953023961194 L 820 293.1547806545442 L 821 293.1235449165362 L 822 293.09582403397053 L 823 293.0716189017595 L 824 293.0509303013167 L 825 293.03375890053167 L 826 293.02010525374817 L 827 293.0099698017466 L 828 293.00335287172936 L 829 293.00025467731064 L 830 293.00067531850937 L 831 293.00461478174594 L 832 293.0120729398429 L 833 293.0230495520286 L 834 293.03754426394556 L 835 293.0555566076613 L 836 293.0770860016838 L 837 293.1021317509804 L 838 293.1306930469998 L 839 293.1627689676985 L 840 293.19835847757054 L 841 293.23746042768084 L 842 293.28007355570213 L 843 293.3261964859562 L 844 293.37582772945774 L 845 293.42896568396276 L 846 293.4856086340202 L 847 293.5457547510274 L 848 293.609402093289 L 849 293.6765486060797 L 850 293.74719212171044 L 851 293.82133035959885 L 852 293.8989609263423 L 853 293.98008131579536 L 854 294.0646889091509 L 855 294.1527809750245 L 856 294.2443546695424 L 857 294.33940703643384 L 858 294.43793500712593 L 859 294.53993540084304 L 860 294.6454049247095 L 861 294.7543401738556 L 862 294.866737631528 L 863 294.9825936692027 L 864 295.1019045467027 L 865 295.2246664123183 L 866 295.35087530293185 L 867 295.4805271441453 L 868 295.6136177504121 L 869 295.7501428251721 L 870 295.89009796099015 L 871 296.03347863969867 L 872 296.18028023254345 L 873 296.3304980003329 L 874 296.48412709359116 L 875 296.6411625527147 L 876 296.8015993081323 L 877 296.96543218046884 L 878 297.1326558807125 L 879 297.3032650103854 L 880 297.47725406171793 L 881 297.65461741782656 L 882 297.83534935289526 L 883 298.01944403236024 L 884 298.20689551309823 L 885 298.39769774361855 L 886 298.5918445642584 L 887 298.7893297073814 L 888 298.99014679758056 L 889 299.1942893518835 L 890 299.4017507799622 L 891 299.61252438434525 L 892 299.8266033606345 L 893 300.04398079772466 L 894 300.2646496780261 L 895 300.4886028776919 L 896 300.71583316684735 L 897 300.94633320982354 L 898 301.18009556539437 L 899 301.41711268701647 L 900 301.6573769230729 L 901 301.9008805171204 L 902 302.14761560813946 L 903 302.3975742307883 L 904 302.6507483156599 L 905 302.90712968954267 L 906 303.16671007568414 L 907 303.4294810940583 L 908 303.6954342616359 L 909 303.96456099265856 L 910 304.2368525989158 L 911 304.5123002900256 L 912 304.79089517371824 L 913 305.07262825612304 L 914 305.3574904420591 L 915 305.6454725353288 L 916 305.93656523901444 L 917 306.23075915577886 L 918 306.5280447881683 L 919 306.82841253891934 L 920 307.1318527112685 L 921 307.43835550926565 L 922 307.7479110380897 L 923 308.06050930436857 L 924 308.3761402165015 L 925 308.69479358498484 L 926 309.01645912274125 L 927 309.3411264454513 L 928 309.6687850718895 L 929 309.99942442426175 L 930 310.3330338285474 L 931 310.66960251484386 L 932 311.00911961771385 L 933 311.3515741765366 L 934 311.6969551358616 L 935 312.04525134576534 L 936 312.39645156221127 L 937 312.7505444474132 L 938 313.10751857020045 L 939 313.46736240638813 L 940 313.83006433914784 L 941 314.1956126593838 L 942 314.56399556611007 L 943 314.935201166832 L 944 315.30921747792985 L 945 315.68603242504605 L 946 316.0656338434745 L 947 316.4480094785536 L 948 316.8331469860619 L 949 317.22103393261625 L 950 317.61165779607376 L 951 318.00500596593554 L 952 318.401065743754 L 953 318.7998243435428 L 954 319.2012688921897 L 955 319.6053864298718 L 956 320.01216391047467 L 957 320.4215882020124 L 958 320.8336460870526 L 959 321.2483242631425 L 960 321.66560934323843 L 961 322.0854878561385 L 962 322.5079462469167 L 963 322.9329708773611 L 964 323.36054802641377 L 965 323.79066389061416 L 966 324.22330458454417 L 967 324.65845614127693 L 968 325.0961045128273 L 969 325.5362355706056 L 970 325.97883510587366 L 971 326.4238888302034 L 972 326.8713823759386 L 973 327.3213012966579 L 974 327.77363106764193 L 975 328.2283570863417 L 976 328.68546467285046 L 977 329.14493907037706 L 978 329.6067654457231 L 979 330.070928889761 L 980 330.53741441791567 L 981 331.00620697064835 L 982 331.4772914139427 L 983 331.95065253979334 L 984 332.42627506669675 L 985 332.90414364014464 L 986 333.38424283311974 L 987 333.86655714659366 L 988 334.35107101002745 L 989 334.83776878187416 L 990 335.3266347500837 L 991 335.81765313261025 L 992 336.3108080779215 L 993 336.8060836655106 L 994 337.3034639064103 L 995 337.8029327437086 L 996 338.3044740530675 L 997 338.8080716432436 L 998 339.31370925661025 L 999 339.82137056968315 L 1000 340.331039193647 L 1001 340.84269867488416 L 1002 341.35633249550665 L 1003 341.8719240738885 L 1004 342.3894567652019 L 1005 342.908913861954 L 1006 343.43027859452627 L 1007 343.9535341317163 L 1008 344.4786635812807 L 1009 345.0056499904807 L 1010 345.5344763466293 L 1011 346.0651255776406 L 1012 346.59758055258084 L 1013 347.13182408222156 L 1014 347.6678389195943 L 1015 348.20560776054765 L 1016 348.7451132443058 L 1017 349.28633795402874 L 1018 349.8292644173749 L 1019 350.37387510706503 L 1020 350.920152441448 L 1021 351.46807878506837 L 1022 352.0176364492361 L 1023 352.5688076925969 L 1024 353.12157472170554 L 1025 353.6759196916001 L 1026 354.2318247063778 L 1027 354.78927181977343 L 1028 355.3482430357378 L 1029 355.90872030901954 L 1030 356.4706855457469 L 1031 357.0341206040125 L 1032 357.59900729445866 L 1033 358.1653273808648 L 1034 358.7330625807361 L 1035 359.30219456589333 L 1036 359.87270496306525 L 1037 360.4445753544811 L 1038 361.0177872784659 L 1039 361.59232223003556 L 1040 362.1681616614949 L 1041 362.7452869830363 L 1042 363.3236795633396 L 1043 363.903320730174 L 1044 364.48419177100067 L 1045 365.06627393357644 L 1046 365.64954842655976 L 1047 366.2339964201172 L 1048 366.8195990465309 L 1049 367.4063374008085 L 1050 367.9941925412927 L 1051 368.5831454902729 L 1052 369.17317723459826 L 1053 369.764268726291 L 1054 370.3564008831616 L 1055 370.94955458942496 L 1056 371.5437106963171 L 1057 372.13885002271365 L 1058 372.734953355749 L 1059 373.3320014514364 L 1060 373.9299750352897 L 1061 374.52885480294503 L 1062 375.1286214207841 L 1063 375.72925552655863 L 1064 376.33073773001513 L 1065 376.9330486135211 L 1066 377.53616873269186 L 1067 378.140078617018 L 1068 378.74475877049423 L 1069 379.35018967224875 L 1070 379.95635177717315 L 1071 380.56322551655404 L 1072 381.1707912987039 L 1073 381.7790295095943 L 1074 382.3879205134886 L 1075 382.9974446535763 L 1076 383.6075822526071 L 1077 384.2183136135268 L 1078 384.82961902011243 L 1079 385.4414787376093 L 1080 386.053873013368 L 1081 386.6667820774816 L 1082 387.28018614342494 L 1083 387.89406540869214 L 1084 388.5084000554367 L 1085 389.12317025111105 L 1086 389.7383561491068 L 1087 390.35393788939524 L 1088 390.9698955991692 L 1089 391.5862093934837 L 1090 392.2028593758984 L 1091 392.81982563911976 L 1092 393.43708826564364 L 1093 394.0546273283989 L 1094 394.67242289138966 L 1095 395.29045501033977 L 1096 395.9087037333362 L 1097 396.52714910147336 L 1098 397.1457711494973 L 1099 397.7645499064505 L 1100 398.3834653963163 L 1101 399.00249763866384 L 1102 399.62162664929315 L 1103 400.2408324408803 L 1104 400.8600950236229 L 1105 401.4793944058847 L 1106 402.09871059484186 L 1107 402.7180235971277 L 1108 403.3373134194786 L 1109 403.95656006937907 L 1110 404.5757435557077 L 1111 405.19484388938173 L 1112 405.8138410840031 L 1113 406.43271515650343 L 1114 407.0514461277888 L 1115 407.67001402338536 L 1116 408.28839887408367 L 1117 408.9065807165835 L 1118 409.5245395941383 L 1119 410.1422555571996 L 1120 410.7597086640607 L 1121 411.3768789815012 L 1122 411.9937465854294 L 1123 412.61029156152637 L 1124 413.2264940058886 L 1125 413.8423340256702 L 1126 414.457791739726 L 1127 415.07284727925236 L 1128 415.68748078842907 L 1129 416.3016724250604 L 1130 416.91540236121557 L 1131 417.52865078386867 L 1132 418.141397895539 L 1133 418.7536239149291 L 1134 419.3653090775642 L 1135 419.9764336364299 L 1136 420.5869778626097 L 1137 421.19692204592224 L 1138 421.80624649555705 L 1139 422.41493154071065 L 1140 423.02295753122127 L 1141 423.63030483820353 L 1142 424.2369538546819 L 1143 424.84288499622386 L 1144 425.4480787015719 L 1145 426.0525154332752 L 1146 426.6561756783202 L 1147 427.2590399487607 L 1148 427.8610887823471 L 1149 428.4623027431542 L 1150 429.0626624222093 L 1151 429.66214843811815 L 1152 430.2607414376912 L 1153 430.8584220965678 L 1154 431.4551711198407 L 1155 432.0509692426786 L 1156 432.64579723094784 L 1157 433.2396358818337 L 1158 433.83246602446025 L 1159 434.42426852050926 L 1160 435.0150242648379 L 1161 435.60471418609563 L 1162 436.1933192473397 L 1163 436.78082044665007 L 1164 437.36719881774246 L 1165 437.9524354305811 L 1166 438.53651139198934 L 1167 439.1194078462597 L 1168 439.7011059757631 L 1169 440.28158700155535 L 1170 440.86083218398466 L 1171 441.4388228232955 L 1172 442.01554026023274 L 1173 442.5909658766442 L 1174 443.1650810960813 L 1175 443.737867384399 L 1176 444.3093062503543 L 1177 444.8793792462029 L 1178 445.4480679682947 L 1179 446.0153540576682 L 1180 446.581219200643 L 1181 447.1456451294111 L 1182 447.7086136226267 L 1183 448.2701065059942 L 1184 448.8301056528551 L 1185 449.3885929847732 L 1186 449.94555047211804 L 1187 450.50096013464747 L 1188 451.0548040420873 L 1189 451.6070643147108 L 1190 452.1577231239155 L 1191 452.706762692799 L 1192 453.25416529673294 L 1193 453.79991326393497 L 1194 454.34398897603916 L 1195 454.88637486866514 L 1196 455.42705343198486 L 1197 455.9660072112878 L 1198 456.503218807545 L 1199 457.03867087796993 L 1200 457.5723461365789 L 1201 458.10422735474907 L 1202 458.6342973617744 L 1203 459.1625390454204 L 1204 459.68893535247594 L 1205 460.21346928930444 L 1206 460.7361239223919 L 1207 461.25688237889415 L 1208 461.77572784718075 L 1209 462.2926435773787 L 1210 462.80761288191246 L 1211 463.3206191360429 L 1212 463.8316457784039 L 1213 464.34067631153727 L 1214 464.84769430242505 L 1215 465.3526833830202 L 1216 465.8556272507748 L 1217 466.35650966916654 L 1218 466.85531446822284 L 1219 467.3520255450428 L 1220 467.84662686431733 L 1221 468.3391024588462 L 1222 468.8294364300541 L 1223 469.31761294850367 L 1224 469.8036162544064 L 1225 470.28743065813194 L 1226 470.7690405407137 L 1227 471.2484303543539 L 1228 471.7255846229251 L 1229 472.20048794246975 L 1230 472.67312498169787 L 1231 473.1434804824816 L 1232 473.611539260348 L 1233 474.0772862049691 L 1234 474.5407062806497 L 1235 475.00178452681297 L 1236 475.46050605848336 L 1237 475.91685606676685 L 1238 476.3708198193294 L 1239 476.82238266087245 L 1240 477.2715300136057 L 1241 477.7182473777182 L 1242 478.1625203318464 L 1243 478.6043345335393 L 1244 479.0436757197219 L 1245 479.4805297071553 L 1246 479.914882392895 L 1247 480.3467197547458 L 1248 480.7760278517147 L 1249 481.2027928244608 L 1250 481.6270008957429 L 1251 482.0486383708642 L 1252 482.46769163811416 L 1253 482.8841471692084 L 1254 483.29799151972514 L 1255 483.70921132953913 L 1256 484.1177933232532 L 1257 484.5237243106266 L 1258 484.92699118700125 L 1259 485.32758093372416 L 1260 485.7254806185681 L 1261 486.1206773961492 L 1262 486.5131585083412 L 1263 486.9029112846878 L 1264 487.2899231428114 L 1265 487.6741815888196 L 1266 488.05567421770786 L 1267 488.4343887137608 L 1268 488.8103128509494 L 1269 489.18343449332554 L 1270 489.5537415954142 L 1271 489.92122220260177 L 1272 490.28586445152257 L 1273 490.6476565704414 L 1274 491.0065868796338 L 1275 491.36264379176305 L 1276 491.7158158122541 L 1277 492.0660915396649 L 1278 492.4134596660543 L 1279 492.7579089773471 L 1280 493.0994283536962 L 1281 493.43800676984154 L 1282 493.77363329546586 L 1283 494.1062970955478 L 1284 494.4359874307115 L 1285 494.7626936575735 L 1286 495.0864052290861 L 1287 495.40711169487804 L 1288 495.7248027015918 L 1289 496.0394679932178 L 1290 496.3510974114255 L 1291 496.65968089589154 L 1292 496.96520848462416 L 1293 497.26767031428517 L 1294 497.56705662050797 L 1295 497.8633577382132 L 1296 498.15656410192037 L 1297 498.44666624605713 L 1298 498.7336548052642 L 1299 499.01752051469833 L 1300 499.29825421033104 L 1301 499.5758468292445 L 1302 499.8502894099243 L 1303 500.12157309254866 L 1304 500.3896891192742 L 1305 500.65462883451903 L 1306 500.916383685242 L 1307 501.1749452212189 L 1308 501.4303050953151 L 1309 501.6824550637552 L 1310 501.93138698638916 L 1311 502.17709282695483 L 1312 502.4195646533377 L 1313 502.658794637827 L 1314 502.89477505736784 L 1315 503.1274982938113 L 1316 503.35695683415986 L 1317 503.5831432708102 L 1318 503.8060503017919 L 1319 504.0256707310041 L 1320 504.2419974684465 L 1321 504.4550235304496 L 1322 504.66474203989907 L 1323 504.8711462264583 L 1324 505.07422942678704 L 1325 505.2739850847562 L 1326 505.4704067516596 L 1327 505.6634880864223 L 1328 505.8532228558052 L 1329 506.0396049346062 L 1330 506.22262830585805 L 1331 506.4022870610226 L 1332 506.5785754001815 L 1333 506.7514876322233 L 1334 506.9210181750275 L 1335 507.08716155564446 L 1336 507.2499124104723 L 1337 507.40926548542984 L 1338 507.5652156361265 L 1339 507.71775782802786 L 1340 507.86688713661897 L 1341 508.0125987475626 L 1342 508.154887956855 L 1343 508.2937501709779 L 1344 508.4291809070463 L 1345 508.56117579295375 L 1346 508.6897305675132 L 1347 508.81484108059453 L 1348 508.93650329325874 L 1349 509.0547132778881 L 1350 509.1694672183131 L 1351 509.2807614099356 L 1352 509.3885922598485 L 1353 509.4929562869516 L 1354 509.59385012206394 L 1355 509.6912705080329 L 1356 509.78521429983886 L 1357 509.87567846469716 L 1358 509.9626600821558 L 1359 510.0461563441898 L 1360 510.12616455529167 L 1361 510.20268213255866 L 1362 510.27570660577607 L 1363 510.34523561749694 L 1364 510.4112669231182 L 1365 510.4737983909531 L 1366 510.53282800230016 L 1367 510.58835385150803 L 1368 510.6403741460374 L 1369 510.68888720651864 L 1370 510.73389146680597 L 1371 510.7753854740282 L 1372 510.8133678886354 L 1373 510.84783748444255 L 1374 510.87879314866854 L 1375 510.90623388197264 L 1376 510.9301587984864 L 1377 510.95056712584244 L 1378 510.96745820519936 L 1379 510.98083149126296 L 1380 510.99068655230377 L 1381 510.9970230701711 L 1382 510.9998408403035 L 1383 510.99913977173475 L 1384 510.9949198870976 L 1385 510.98718132262235 L 1386 510.975924328133 L 1387 510.9611492670386 L 1388 510.9428566163221 L 1389 510.92104696652467 L 1390 510.8957210217265 L 1391 510.8668795995244 L 1392 510.83452363100514 L 1393 510.79865416071556 L 1394 510.7592723466286 L 1395 510.7163794601064 L 1396 510.66997688585866 L 1397 510.6200661218983 L 1398 510.56664877949316 L 1399 510.5097265831138 L 1400 510.44930137037767 L 1401 510.3853750919902 L 1402 510.31794981168173 L 1403 510.2470277061405 L 1404 510.17261106494277 L 1405 510.0947022904789 L 1406 510.0133038978756 L 1407 509.9284185149147 L 1408 509.84004888194863 L 1409 509.74819785181165 L 1410 509.652868389728 L 1411 509.55406357321584 L 1412 509.45178659198825 L 1413 509.34604074785005 L 1414 509.2368294545912 L 1415 509.12415623787683 L 1416 509.00802473513295 L 1417 508.88843869542967 L 1418 508.7654019793596 L 1419 508.63891855891336 L 1420 508.50899251735166 L 1421 508.3756280490731 L 1422 508.23882945947895 L 1423 508.0986011648341 L 1424 507.9549476921245 L 1425 507.80787367891116 L 1426 507.6573838731801 L 1427 507.50348313318926 L 1428 507.3461764273119 L 1429 507.1854688338758 L 1430 507.0213655409995 L 1431 506.8538718464249 L 1432 506.6829931573461 L 1433 506.50873499023476 L 1434 506.33110297066236 L 1435 506.1501028331182 L 1436 505.9657404208245 L 1437 505.7780216855475 L 1438 505.5869526874059 L 1439 505.39253959467453 L 1440 505.1947886835856 L 1441 504.9937063381261 L 1442 504.7892990498315 L 1443 504.58157341757646 L 1444 504.3705361473614 L 1445 504.1561940520965 L 1446 503.9385540513814 L 1447 503.71762317128196 L 1448 503.4934085441032 L 1449 503.26591740815957 L 1450 503.03515710754084 L 1451 502.80113509187504 L 1452 502.56385891608807 L 1453 502.32333624015996 L 1454 502.0795748288772 L 1455 501.8325825515824 L 1456 501.58236738192 L 1457 501.3289373975792 L 1458 501.07230078003283 L 1459 500.8124658142732 L 1460 500.5494408885451 L 1461 500.2832344940746 L 1462 500.0138552247949 L 1463 499.74131177706926 L 1464 499.46561294940983 L 1465 499.1867676421939 L 1466 498.90478485737646 L 1467 498.61967369819956 L 1468 498.3314433688984 L 1469 498.0401031744045 L 1470 497.7456625200448 L 1471 497.4481309112384 L 1472 497.14751795318966 L 1473 496.84383335057794 L 1474 496.53708690724443 L 1475 496.22728852587574 L 1476 495.914448207684 L 1477 495.5985760520841 L 1478 495.2796822563678 L 1479 494.9577771153741 L 1480 494.6328710211575 L 1481 494.30497446265184 L 1482 493.9740980253323 L 1483 493.6402523908733 L 1484 493.30344833680374 L 1485 492.9636967361592 L 1486 492.6210085571307 L 1487 492.27539486271087 L 1488 491.9268668103365 L 1489 491.57543565152855 L 1490 491.22111273152905 L 1491 490.8639094889346 L 1492 490.50383745532696 L 1493 490.14090825490115 L 1494 489.7751336040901 L 1495 489.4065253111863 L 1496 489.03509527596043 L 1497 488.6608554892777 L 1498 488.2838180327102 L 1499 487.90399507814726 L 1500 487.52139888740226 L 1501 487.13604181181694 L 1502 486.74793629186274 L 1503 486.3570948567387 L 1504 485.9635301239676 L 1505 485.56725479898824 L 1506 485.1682816747456 L 1507 484.76662363127735 L 1508 484.3622936352985 L 1509 483.9553047397826 L 1510 483.54567008354036 L 1511 483.1334028907955 L 1512 482.71851647075783 L 1513 482.3010242171938 L 1514 481.8809396079934 L 1515 481.4582762047361 L 1516 481.03304765225215 L 1517 480.6052676781827 L 1518 480.1749500925363 L 1519 479.7421087872429 L 1520 479.30675773570596 L 1521 478.8689109923508 L 1522 478.4285826921711 L 1523 477.98578705027273 L 1524 477.5405383614145 L 1525 477.09285099954684 L 1526 476.64273941734797 L 1527 476.19021814575694 L 1528 475.7353017935049 L 1529 475.2780050466433 L 1530 474.81834266806965 L 1531 474.3563294970513 L 1532 473.89198044874604 L 1533 473.42531051372066 L 1534 472.9563347574672 L 1535 472.4850683199165 L 1536 472.011526414949 L 1537 471.5357243299045 L 1538 471.0576774250879 L 1539 470.5774011332735" stroke-linecap="round" stroke-linejoin="round" stroke-miterlimit="10"/></g></svg>