<svg version="1.1" xmlns="http://www.w3.org/2000/svg" xmlns:xlink="http://www.w3.org/1999/xlink" width="1560" height="804"><defs/><g><path fill="none" stroke="#02063B" paint-order="fill stroke markers" d=" M 116 443.95845796777513 L 117 443.97939841773945 L 118 443.99307107117284 L 119 443.99947356096027 L 120 443.99860477865343 L 121 443.9904648746626 L 122 443.97505525823067 L 123 443.952378597189 L 124 443.9224388174956 L 125 443.8852411025557 L 126 443.8407918923238 L 127 443.7890988821894 L 128 443.7301710216442 L 129 443.6640185127329 L 130 443.5906528082871 L 131 443.51008660994194 L 132 443.4223338659379 L 133 443.32740976870537 L 134 443.2253307522345 L 135 443.1161144892303 L 136 442.9997798880528 L 137 442.8763470894434 L 138 442.7458374630382 L 139 442.6082736036681 L 140 442.46367932744715 L 141 442.31207966764924 L 142 442.1535008703742 L 143 441.9879703900039 L 144 441.815516884449 L 145 441.6361702101876 L 146 441.4499614170962 L 147 441.25692274307414 L 148 441.0570876084623 L 149 440.85049061025717 L 150 440.63716751612105 L 151 440.4171552581898 L 152 440.19049192667865 L 153 439.957216763288 L 154 439.7173701544094 L 155 439.4709936241338 L 156 439.21812982706217 L 157 438.95882254092106 L 158 438.6931166589836 L 159 438.4210581822969 L 160 438.14269421171826 L 161 437.8580729397605 L 162 437.56724364224885 L 163 437.2702566697894 L 164 436.9671634390525 L 165 436.6580164238709 L 166 436.34286914615507 L 167 436.02177616662715 L 168 435.69479307537483 L 169 435.36197648222753 L 170 435.0233840069551 L 171 434.6790742692927 L 172 434.329106878792 L 173 433.973542424501 L 174 433.61244246447444 L 175 433.24586951511657 L 176 432.87388704035743 L 177 432.4965594406659 L 178 432.1139520419 L 179 431.72613108399725 L 180 431.33316370950644 L 181 430.9351179519638 L 182 430.5320627241143 L 183 430.124067805981 L 184 429.7112038327839 L 185 429.29354228271166 L 186 428.87115546454606 L 187 428.4441165051439 L 188 428.0124993367762 L 189 427.57637868432903 L 190 427.13583005236615 L 191 426.69092971205725 L 192 426.2417546879731 L 193 425.78838274475095 L 194 425.3308923736306 L 195 424.8693627788661 L 196 424.4038738640129 L 197 423.93450621809427 L 198 423.4613411016494 L 199 422.98446043266483 L 200 422.50394677239194 L 201 422.0198833110539 L 202 421.5323538534423 L 203 421.04144280440903 L 204 420.547235154253 L 205 420.04981646400597 L 206 419.54927285061984 L 207 419.04569097205723 L 208 418.53915801228845 L 209 418.02976166619794 L 210 417.51759012440135 L 211 417.0027320579779 L 212 416.4852766031182 L 213 415.9653133456931 L 214 415.44293230574345 L 215 414.91822392189516 L 216 414.39127903570176 L 217 413.8621888759174 L 218 413.3310450427025 L 219 412.79793949176513 L 220 412.26296451844115 L 221 411.7262127417151 L 222 411.1877770881855 L 223 410.6477507759765 L 224 410.1062272985993 L 225 409.56330040876605 L 226 409.01906410215827 L 227 408.47361260115383 L 228 407.9270403385144 L 229 407.37944194103665 L 230 406.83091221316937 L 231 406.2815461206007 L 232 405.7314387738164 L 233 405.1806854116342 L 234 404.62938138471475 L 235 404.07762213905403 L 236 403.525503199459 L 237 402.97312015300975 L 238 402.4205686325103 L 239 401.86794429993256 L 240 401.3153428298539 L 241 400.7628598928937 L 242 400.21059113915 L 243 399.6586321816397 L 244 399.1070785797454 L 245 398.55602582267164 L 246 398.00556931291254 L 247 397.45580434973544 L 248 396.9068261126818 L 249 396.35872964508906 L 250 395.81160983763584 L 251 395.26556141191384 L 252 394.720678904029 L 253 394.17705664823455 L 254 393.6347887605992 L 255 393.09396912271296 L 256 392.5546913654337 L 257 392.01704885267714 L 258 391.4811346652528 L 259 390.94704158474923 L 260 390.41486207747107 L 261 389.88468827843013 L 262 389.3566119753949 L 263 388.830724592999 L 264 388.30711717691344 L 265 387.78588037808373 L 266 387.267104437036 L 267 386.7508791682536 L 268 386.2372939446282 L 269 385.7264376819861 L 270 385.21839882369517 L 271 384.7132653253525 L 272 384.2111246395568 L 273 383.7120637007681 L 274 383.216168910257 L 275 382.72352612114605 L 276 382.2342206235463 L 277 381.7483371297913 L 278 381.2659597597708 L 279 380.7871720263676 L 280 380.3120568209988 L 281 379.84069639926537 L 282 379.37317236671106 L 283 378.9095656646946 L 284 378.44995655637604 L 285 377.99442461282155 L 286 377.543048699227 L 287 377.09590696126423 L 288 376.65307681155235 L 289 376.2146349162548 L 290 375.7806571818068 L 291 375.3512187417737 L 292 374.92639394384327 L 293 374.5062563369539 L 294 374.0908786585616 L 295 373.6803328220468 L 296 373.2746899042643 L 297 372.87402013323793 L 298 372.478392876002 L 299 372.08787662659205 L 300 371.7025389941867 L 301 371.3224466914023 L 302 370.9476655227437 L 303 370.57826037321115 L 304 370.21429519706703 L 305 369.85583300676376 L 306 369.50293586203446 L 307 369.1556648591488 L 308 368.81408012033546 L 309 368.47824078337317 L 310 368.1482049913527 L 311 367.82402988261026 L 312 367.5057715808356 L 313 367.1934851853553 L 314 366.8872247615934 L 315 366.5870433317117 L 316 366.2929928654293 L 317 366.0051242710261 L 318 365.72348738652863 L 319 365.44813097108175 L 320 365.1791026965074 L 321 364.9164491390508 L 322 364.6602157713173 L 323 364.4104469543995 L 324 364.1671859301972 L 325 363.9304748139311 L 326 363.7003545868514 L 327 363.4768650891428 L 328 363.26004501302714 L 329 363.0499318960647 L 330 362.8465621146553 L 331 362.64997087774066 L 332 362.46019222070873 L 333 362.2772589995011 L 334 362.101202884925 L 335 361.93205435716976 L 336 361.76984270053043 L 337 361.61459599833734 L 338 361.4663411280944 L 339 361.32510375682574 L 340 361.190908336632 L 341 361.06377810045706 L 342 360.94373505806595 L 343 360.8307999922339 L 344 360.7249924551487 L 345 360.62633076502556 L 346 360.53483200293545 L 347 360.45051200984835 L 348 360.3733853838903 L 349 360.3034654778165 L 350 360.24076439669903 L 351 360.1852929958317 L 352 360.1370608788503 L 353 360.09607639607026 L 354 360.0623466430404 L 355 360.03587745931543 L 356 360.01667342744395 L 357 360.00473787217584 L 358 360.00007285988625 L 359 360.00267919821795 L 360 360.01255643594175 L 361 360.0297028630341 L 362 360.0541155109737 L 363 360.08579015325495 L 364 360.12472130612 L 365 360.17090222950816 L 366 360.2243249282225 L 367 360.2849801533142 L 368 360.35285740368397 L 369 360.4279449278999 L 370 360.5102297262317 L 371 360.59969755290206 L 372 360.6963329185522 L 373 360.80011909292375 L 374 360.91103810775564 L 375 361.02907075989435 L 376 361.1541966146187 L 377 361.2863940091777 L 378 361.4256400565411 L 379 361.57191064936154 L 380 361.7251804641482 L 381 361.8854229656512 L 382 362.0526104114554 L 383 362.2267138567836 L 384 362.4077031595074 L 385 362.5955469853657 L 386 362.79021281338976 L 387 362.99166694153337 L 388 363.1998744925073 L 389 363.41479941981805 L 390 363.6364045140081 L 391 363.86465140909803 L 392 364.0995005892288 L 393 364.34091139550287 L 394 364.5888420330235 L 395 364.84324957813084 L 396 365.1040899858325 L 397 365.37131809742976 L 398 365.6448876483353 L 399 365.92475127608316 L 400 366.2108605285281 L 401 366.50316587223443 L 402 366.80161670105156 L 403 367.106161344875 L 404 367.41674707859227 L 405 367.73332013121075 L 406 368.05582569516736 L 407 368.38420793581673 L 408 368.71841000109816 L 409 369.058374031378 L 410 369.40404116946695 L 411 369.7553515708098 L 412 370.1122444138462 L 413 370.47465791054043 L 414 370.84252931707874 L 415 371.2157949447322 L 416 371.5943901708825 L 417 371.9782494502105 L 418 372.36730632604355 L 419 372.76149344186103 L 420 373.1607425529558 L 421 373.56498453824906 L 422 373.97414941225725 L 423 374.3881663372085 L 424 374.80696363530626 L 425 375.2304688011394 L 426 375.6586085142341 L 427 376.09130865174836 L 428 376.52849430130425 L 429 376.97008977395745 L 430 377.41601861730123 L 431 377.8662036287023 L 432 378.32056686866684 L 433 378.7790296743339 L 434 379.24151267309423 L 435 379.7079357963318 L 436 380.1782182932858 L 437 380.65227874503114 L 438 381.13003507857394 L 439 381.61140458106087 L 440 382.096303914099 L 441 382.58464912818397 L 442 383.07635567723406 L 443 383.5713384332272 L 444 384.06951170093924 L 445 384.5707892327801 L 446 385.07508424372566 L 447 385.5823094263424 L 448 386.0923769659032 L 449 386.60519855559005 L 450 387.1206854117826 L 451 387.638748289429 L 452 388.15929749749694 L 453 388.6822429145013 L 454 389.2074940041068 L 455 389.73495983080255 L 456 390.2645490756451 L 457 390.7961700520687 L 458 391.32973072175844 L 459 391.8651387105849 L 460 392.40230132459646 L 461 392.94112556606746 L 462 393.48151814959823 L 463 394.0233855182659 L 464 394.56663385982137 L 465 395.11116912293073 L 466 395.6568970334586 L 467 396.20372311078904 L 468 396.7515526841832 L 469 397.3002909091691 L 470 397.8498427839622 L 471 398.40011316591244 L 472 398.95100678797644 L 473 399.5024282752106 L 474 400.05428216128325 L 475 400.6064729050026 L 476 401.15890490685734 L 477 401.7114825255677 L 478 402.2641100946437 L 479 402.8166919389475 L 480 403.3691323912575 L 481 403.9213358088309 L 482 404.47320658996244 L 483 405.02464919053506 L 484 405.57556814056187 L 485 406.12586806071437 L 486 406.67545367883514 L 487 407.22422984643237 L 488 407.77210155515246 L 489 408.31897395322875 L 490 408.864752361903 L 491 409.4093422918166 L 492 409.95264945936975 L 493 410.4945798030442 L 494 411.03503949968825 L 495 411.5739349807597 L 496 412.11117294852545 L 497 412.646660392214 L 498 413.18030460411785 L 499 413.7120131956441 L 500 414.2416941133093 L 501 414.76925565467656 L 502 415.2946064842316 L 503 415.81765564919573 L 504 416.3383125952721 L 505 416.8564871823231 L 506 417.3720896999764 L 507 417.885030883156 L 508 418.39522192753657 L 509 418.9025745049181 L 510 419.4070007785178 L 511 419.90841341817696 L 512 420.4067256154805 L 513 420.9018510987859 L 514 421.3937041481589 L 515 421.88219961021423 L 516 422.367252912858 L 517 422.8487800799295 L 518 423.3266977457396 L 519 423.80092316950396 L 520 424.27137424966753 L 521 424.7379695381187 L 522 425.20062825429017 L 523 425.6592702991443 L 524 426.11381626904057 L 525 426.5641874694825 L 526 427.0103059287417 L 527 427.4520944113571 L 528 427.8894764315067 L 529 428.32237626624885 L 530 428.7507189686327 L 531 429.17443038067296 L 532 429.59343714618916 L 533 430.0076667235052 L 534 430.4170473980088 L 535 430.8215082945669 L 536 431.2209793897964 L 537 431.6153915241869 L 538 432.00467641407425 L 539 432.38876666346243 L 540 432.76759577569135 L 541 433.1410981649496 L 542 433.5092091676292 L 543 433.8718650535202 L 544 434.2290030368447 L 545 434.5805612871264 L 546 434.9264789398954 L 547 435.26669610722547 L 548 435.6011538881022 L 549 435.92979437862067 L 550 436.25256068200986 L 551 436.5693969184832 L 552 436.8802482349132 L 553 437.18506081432747 L 554 437.4837818852265 L 555 437.7763597307195 L 556 438.06274369747814 L 557 438.342884204506 L 558 438.6167327517226 L 559 438.88424192835987 L 560 439.14536542117037 L 561 439.40005802244536 L 562 439.6482756378416 L 563 439.8899752940153 L 564 440.1251151460617 L 565 440.35365448476 L 566 440.57555374362113 L 567 440.7907745057375 L 568 440.99927951043446 L 569 441.2010326597209 L 570 441.39599902453904 L 571 441.5841448508112 L 572 441.76543756528395 L 573 441.9398457811674 L 574 442.10733930356884 L 575 442.2678891347207 L 576 442.4214674790006 L 577 442.56804774774366 L 578 442.7076045638456 L 579 442.8401137661564 L 580 442.96555241366315 L 581 443.08389878946184 L 582 443.19513240451704 L 583 443.2992340012093 L 584 443.39618555666897 L 585 443.48597028589666 L 586 443.5685726446691 L 587 443.64397833223006 L 588 443.71217429376674 L 589 443.7731487226694 L 590 443.8268910625756 L 591 443.8733920091979 L 592 443.91264351193456 L 593 443.9446387752633 L 594 443.96937225991786 L 595 443.9868396838471 L 596 443.99703802295613 L 597 443.99996551163 L 598 443.9956216430393 L 599 443.9840071692281 L 600 443.96512410098336 L 601 443.93897570748726 L 602 443.90556651575093 L 603 443.86490230983065 L 604 443.8169901298269 L 605 443.76183827066484 L 606 443.69945628065886 L 607 443.62985495985913 L 608 443.55304635818203 L 609 443.46904377332373 L 610 443.3778617484583 L 611 443.27951606971953 L 612 443.1740237634683 L 613 443.06140309334444 L 614 442.9416735571052 L 615 442.81485588324927 L 616 442.68097202742837 L 617 442.54004516864603 L 618 442.39209970524456 L 619 442.2371612506812 L 620 442.0752566290937 L 621 441.90641387065614 L 622 441.73066220672627 L 623 441.5480320647847 L 624 441.3585550631672 L 625 441.1622640055906 L 626 440.9591928754733 L 627 440.7493768300523 L 628 440.5328521942961 L 629 440.30965645461606 L 630 440.0798282523764 L 631 439.84340737720413 L 632 439.6004347601008 L 633 439.3509524663558 L 634 439.0950036882639 L 635 438.83263273764726 L 636 438.56388503818414 L 637 438.28880711754454 L 638 438.00744659933514 L 639 437.7198521948543 L 640 437.4260736946585 L 641 437.12616195994275 L 642 436.8201689137347 L 643 436.5081475319054 L 644 436.19015183399796 L 645 435.86623687387475 L 646 435.5364587301866 L 647 435.20087449666374 L 648 434.8595422722314 L 649 434.5125211509513 L 650 434.15987121179035 L 651 433.8016535082203 L 652 433.4379300576468 L 653 433.0687638306728 L 654 432.6942187401968 L 655 432.31435963034716 L 656 431.9292522652566 L 657 431.5389633176759 L 658 431.1435603574314 L 659 430.74311183972657 L 660 430.3376870932907 L 661 429.9273563083761 L 662 429.5121905246061 L 663 429.09226161867656 L 664 428.6676422919113 L 665 428.23840605767606 L 666 427.80462722865127 L 667 427.36638090396605 L 668 426.92374295619715 L 669 426.4767900182324 L 670 426.0255994700043 L 671 425.57024942509304 L 672 425.11081871720273 L 673 424.64738688651335 L 674 424.18003416591006 L 675 423.70884146709255 L 676 423.2338903665673 L 677 422.75526309152406 L 678 422.2730425056002 L 679 421.78731209453474 L 680 421.2981559517147 L 681 420.8056587636162 L 682 420.30990579514264 L 683 419.8109828748632 L 684 419.30897638015375 L 685 418.80397322224206 L 686 418.2960608311614 L 687 417.7853271406139 L 688 417.27186057274656 L 689 416.7557500228434 L 690 416.23708484393484 L 691 415.7159548313283 L 692 415.1924502070624 L 693 414.66666160428633 L 694 414.1386800515697 L 695 413.60859695714225 L 696 413.07650409306893 L 697 412.5424935793613 L 698 412.0066578680293 L 699 411.46908972707513 L 700 410.92988222443256 L 701 410.38912871185426 L 702 409.8469228087498 L 703 409.3033583859782 L 704 408.75852954959555 L 705 408.2125306245631 L 706 407.66545613841686 L 707 407.11740080490205 L 708 406.56845950757594 L 709 406.01872728338066 L 710 405.4682993061896 L 711 404.9172708703304 L 712 404.36573737408656 L 713 403.81379430318157 L 714 403.2615372142477 L 715 402.7090617182825 L 716 402.15646346409557 L 717 401.60383812174956 L 718 401.05128136599683 L 719 400.4988888597154 L 720 399.94675623734736 L 721 399.39497908834136 L 722 398.843652940604 L 723 398.2928732439611 L 724 397.74273535363255 L 725 397.1933345137239 L 726 396.6447658407367 L 727 396.0971243071014 L 728 395.5505047247351 L 729 395.00500172862667 L 730 394.4607097604532 L 731 393.91772305222884 L 732 393.3761356099916 L 733 392.8360411975275 L 734 392.2975333201379 L 735 391.7607052084509 L 736 391.22564980228054 L 737 390.6924597345368 L 738 390.1612273151875 L 739 389.63204451527764 L 740 389.10500295100604 L 741 388.5801938678645 L 742 388.0577081248405 L 743 387.5376361786869 L 744 387.02006806826165 L 745 386.50509339893915 L 746 385.99280132709754 L 747 385.4832805446828 L 748 384.9766192638542 L 749 384.4729052017121 L 750 383.97222556511133 L 751 383.4746670355639 L 752 382.9803157542318 L 753 382.4892573070134 L 754 382.0015767097263 L 755 381.51735839338863 L 756 381.036686189602 L 757 380.5596433160376 L 758 380.0863123620291 L 759 379.61677527427395 L 760 379.15111334264645 L 761 378.689407186124 L 762 378.2317367388297 L 763 377.7781812361937 L 764 377.3288192012351 L 765 376.88372843096784 L 766 376.4429859829315 L 767 376.00666816185065 L 768 375.57485050642447 L 769 375.14760777624866 L 770 374.72501393887285 L 771 374.3071421569944 L 772 373.89406477579234 L 773 373.4858533104018 L 774 373.08257843353334 L 775 372.68430996323735 L 776 372.2911168508164 L 777 371.9030671688883 L 778 371.52022809960033 L 779 371.1426659229986 L 780 370.7704460055528 L 781 370.40363278883973 L 782 370.0422897783865 L 783 369.68647953267595 L 784 369.3362636523162 L 785 368.9917027693757 L 786 368.65285653688636 L 787 368.3197836185157 L 788 367.9925416784107 L 789 367.67118737121444 L 790 367.35577633225785 L 791 367.04636316792744 L 792 366.7430014462114 L 793 366.44574368742576 L 794 366.1546413551213 L 795 365.86974484717433 L 796 365.5911034870609 L 797 365.31876551531747 L 798 365.05277808118984 L 799 364.79318723446966 L 800 364.5400379175221 L 801 364.2933739575052 L 802 364.05323805878203 L 803 363.8196717955275 L 804 363.5927156045306 L 805 363.3724087781939 L 806 363.1587894577306 L 807 362.9518946265615 L 808 362.75176010391203 L 809 362.5584205386111 L 810 362.37190940309205 L 811 362.19225898759817 L 812 362.019500394592 L 813 361.8536635333707 L 814 361.694777114888 L 815 361.54286864678346 L 816 361.3979644286201 L 817 361.2600895473315 L 818 361.12926787287813 L 819 361.0055220541151 L 820 360.88887351487085 L 821 360.77934245023835 L 822 360.6769478230784 L 823 360.5817073607369 L 824 360.49363755197567 L 825 360.41275364411774 L 826 360.33906964040784 L 827 360.2725982975877 L 828 360.21335112368774 L 829 360.16133837603473 L 830 360.1165690594758 L 831 360.0790509248196 L 832 360.04879046749437 L 833 360.02579292642326 L 834 360.0100622831177 L 835 360.0016012609877 L 836 360.00041132487047 L 837 360.00649268077694 L 838 360.019844275856 L 839 360.04046379857664 L 840 360.0683476791285 L 841 360.10349109003965 L 842 360.14588794701217 L 843 360.195530909976 L 844 360.2524113843593 L 845 360.3165195225766 L 846 360.38784422573355 L 847 360.46637314554874 L 848 360.5520926864911 L 849 360.64498800813413 L 850 360.7450430277247 L 851 360.85224042296784 L 852 360.9665616350254 L 853 361.08798687172947 L 854 361.21649511100844 L 855 361.352064104527 L 856 361.4946703815376 L 857 361.64428925294413 L 858 361.800894815576 L 859 361.96445995667295 L 860 362.134956358579 L 861 362.3123545036449 L 862 362.4966236793385 L 863 362.6877319835619 L 864 362.8856463301747 L 865 363.09033245472216 L 866 363.301754920367 L 867 363.5198771240248 L 868 363.74466130270116 L 869 363.97606854002896 L 870 364.2140587730064 L 871 364.45859079893273 L 872 364.70962228254166 L 873 364.9671097633309 L 874 365.231008663086 L 875 365.5012732935985 L 876 365.77785686457565 L 877 366.0607114917409 L 878 366.34978820512447 L 879 366.64503695754087 L 880 366.94640663325384 L 881 367.2538450568258 L 882 367.5672990021507 L 883 367.8867142016693 L 884 368.21203535576393 L 885 368.5432061423327 L 886 368.88016922654026 L 887 369.2228662707443 L 888 369.57123794459505 L 889 369.92522393530726 L 890 370.28476295810185 L 891 370.6497927668161 L 892 371.0202501646804 L 893 371.3960710152589 L 894 371.7771902535535 L 895 372.16354189726866 L 896 372.5550590582343 L 897 372.95167395398653 L 898 373.3533179195021 L 899 373.75992141908665 L 900 374.1714140584131 L 901 374.58772459670877 L 902 375.0087809590894 L 903 375.43451024903703 L 904 375.86483876102056 L 905 376.299691993256 L 906 376.7389946606053 L 907 377.1826707076097 L 908 377.63064332165743 L 909 378.0828349462819 L 910 378.53916729458876 L 911 378.9995613628102 L 912 379.4639374439817 L 913 379.93221514174235 L 914 380.4043133842531 L 915 380.8801504382329 L 916 381.35964392310893 L 917 381.84271082527886 L 918 382.3292675124829 L 919 382.8192297482827 L 920 383.3125127066452 L 921 383.8090309866284 L 922 384.3086986271664 L 923 384.81142912195173 L 924 385.3171354344121 L 925 385.82573001277876 L 926 386.3371248052442 L 927 386.85123127520603 L 928 387.3679604165957 L 929 387.8872227692873 L 930 388.4089284345863 L 931 388.93298709079266 L 932 389.45930800883866 L 933 389.9878000679964 L 934 390.5183717716531 L 935 391.05093126315234 L 936 391.5853863416962 L 937 392.1216444783084 L 938 392.65961283185305 L 939 393.1991982651086 L 940 393.74030736089225 L 941 394.28284643823287 L 942 394.8267215685899 L 943 395.37183859211507 L 944 395.9181031339541 L 945 396.46542062058535 L 946 397.01369629619336 L 947 397.56283523907354 L 948 398.1127423780659 L 949 398.66332250901445 L 950 399.2144803112496 L 951 399.7661203640908 L 952 400.31814716336675 L 953 400.87046513794934 L 954 401.42297866630037 L 955 401.97559209302545 L 956 402.5282097454352 L 957 403.08073595010876 L 958 403.6330750494571 L 959 404.18513141828464 L 960 404.7368094803441 L 961 405.2880137248836 L 962 405.83864872318225 L 963 406.38861914507135 L 964 406.93782977543896 L 965 407.48618553071384 L 966 408.03359147532757 L 967 408.57995283814995 L 968 409.1251750288973 L 969 409.66916365450766 L 970 410.21182453548363 L 971 410.7530637221971 L 972 411.2927875111547 L 973 411.8309024612204 L 974 412.3673154097925 L 975 412.90193348893325 L 976 413.4346641414462 L 977 413.9654151369008 L 978 414.4940945876001 L 979 415.02061096448887 L 980 415.54487311299977 L 981 416.0667902688349 L 982 416.5862720736795 L 983 417.1032285908456 L 984 417.6175703208424 L 985 418.1292082168711 L 986 418.6380537002416 L 987 419.1440186757077 L 988 419.64701554671893 L 989 420.1469572305858 L 990 420.6437571735565 L 991 421.13732936580135 L 992 421.627588356304 L 993 422.1144492676549 L 994 422.59782781074614 L 995 423.07764029936425 L 996 423.55380366467836 L 997 424.02623546962235 L 998 424.4948539231661 L 999 424.9595778944764 L 1000 425.42032692696284 L 1001 425.87702125220693 L 1002 426.3295818037724 L 1003 426.7779302308935 L 1004 427.22198891204005 L 1005 427.66168096835565 L 1006 428.09693027696767 L 1007 428.527661484166 L 1008 428.9538000184492 L 1009 429.37527210343455 L 1010 429.7920047706309 L 1011 430.203925872072 L 1012 430.6109640928063 L 1013 431.0130489632446 L 1014 431.41011087135956 L 1015 431.8020810747378 L 1016 432.1888917124812 L 1017 432.5704758169552 L 1018 432.9467673253829 L 1019 433.3177010912823 L 1020 433.6832128957452 L 1021 434.04323945855504 L 1022 434.3977184491425 L 1023 434.7465884973765 L 1024 435.0897892041893 L 1025 435.42726115203345 L 1026 435.75894591516806 L 1027 436.0847860697742 L 1028 436.4047252038967 L 1029 436.7187079272103 L 1030 437.0266798806095 L 1031 437.3285877456196 L 1032 437.6243792536275 L 1033 437.9140031949309 L 1034 438.19740942760404 L 1035 438.4745488861789 L 1036 438.7453735901395 L 1037 439.0098366522287 L 1038 439.267892286566 L 1039 439.5194958165739 L 1040 439.76460368271296 L 1041 440.003173450023 L 1042 440.23516381546983 L 1043 440.460534615096 L 1044 440.6792468309742 L 1045 440.89126259796234 L 1046 441.09654521025925 L 1047 441.2950591277591 L 1048 441.4867699822048 L 1049 441.6716445831378 L 1050 441.84965092364433 L 1051 442.0207581858968 L 1052 442.1849367464891 L 1053 442.34215818156525 L 1054 442.4923952717406 L 1055 442.6356220068136 L 1056 442.7718135902698 L 1057 442.90094644357396 L 1058 443.02299821025287 L 1059 443.13794775976527 L 1060 443.2457751911605 L 1061 443.34646183652376 L 1062 443.4399902642081 L 1063 443.52634428185246 L 1064 443.6055089391846 L 1065 443.6774705306097 L 1066 443.7422165975834 L 1067 443.7997359307682 L 1068 443.8500185719745 L 1069 443.89305581588445 L 1070 443.9288402115592 L 1071 443.95736556372873 L 1072 443.9786269338646 L 1073 443.9926206410347 L 1074 443.99934426254083 L 1075 443.9987966343378 L 1076 443.9909778512353 L 1077 443.9758892668812 L 1078 443.95353349352735 L 1079 443.9239144015773 L 1080 443.8870371189161 L 1081 443.84290803002295 L 1082 443.7915347748651 L 1083 443.732926247576 L 1084 443.66709259491495 L 1085 443.5940452145105 L 1086 443.51379675288734 L 1087 443.4263611032768 L 1088 443.33175340321134 L 1089 443.2299900319042 L 1090 443.12108860741336 L 1091 443.0050679835916 L 1092 442.88194824682216 L 1093 442.75175071254137 L 1094 442.61449792154843 L 1095 442.47021363610287 L 1096 442.31892283581055 L 1097 442.16065171329916 L 1098 441.9954276696835 L 1099 441.82327930982166 L 1100 441.64423643736245 L 1101 441.4583300495859 L 1102 441.2655923320367 L 1103 441.0660566529517 L 1104 440.8597575574835 L 1105 440.64673076171897 L 1106 440.4270131464966 L 1107 440.20064275102095 L 1108 439.9676587662769 L 1109 439.7281015282451 L 1110 439.48201251091814 L 1111 439.2294343191206 L 1112 438.9704106811331 L 1113 438.70498644112115 L 1114 438.43320755137194 L 1115 438.15512106433846 L 1116 437.8707751244936 L 1117 437.58021895999474 L 1118 437.2835028741613 L 1119 436.9806782367655 L 1120 436.6717974751393 L 1121 436.35691406509716 L 1122 436.03608252167845 L 1123 435.7093583897091 L 1124 435.37679823418546 L 1125 435.0384596304809 L 1126 434.6944011543784 L 1127 434.34468237192925 L 1128 433.98936382914064 L 1129 433.62850704149315 L 1130 433.26217448329106 L 1131 432.89042957684615 L 1132 432.51333668149766 L 1133 432.13096108246975 L 1134 431.7433689795689 L 1135 431.3506274757229 L 1136 430.95280456536346 L 1137 430.54996912265455 L 1138 430.14219088956827 L 1139 429.7295404638105 L 1140 429.3120892865989 L 1141 428.8899096302939 L 1142 428.4630745858868 L 1143 428.0316580503454 L 1144 427.5957347138206 L 1145 427.1553800467152 L 1146 426.71067028661827 L 1147 426.261682425106 L 1148 425.8084941944125 L 1149 425.35118405397185 L 1150 424.8898311768352 L 1151 424.42451543596314 L 1152 423.955317390398 L 1153 423.4823182713163 L 1154 423.00559996796574 L 1155 422.5252450134879 L 1156 422.0413365706294 L 1157 421.5539584173441 L 1158 421.0631949322887 L 1159 420.5691310802147 L 1160 420.07185239725845 L 1161 419.57144497613285 L 1162 419.06799545122175 L 1163 418.56159098358137 L 1164 418.0523192458505 L 1165 417.54026840707195 L 1166 417.0255271174275 L 1167 416.5081844928909 L 1168 415.98833009979865 L 1169 415.4660539393442 L 1170 414.9414464319959 L 1171 414.41459840184297 L 1172 413.88560106087084 L 1173 413.3545459931705 L 1174 412.8215251390824 L 1175 412.28663077927877 L 1176 411.749955518788 L 1177 411.21159227096126 L 1178 410.67163424138744 L 1179 410.13017491175617 L 1180 409.58730802367364 L 1181 409.0431275624336 L 1182 408.4977277407454 L 1183 407.9512029824237 L 1184 407.4036479060407 L 1185 406.8551573085453 L 1186 406.305826148851 L 1187 405.7557495313958 L 1188 405.20502268967715 L 1189 404.6537409697643 L 1190 404.1019998137915 L 1191 403.5498947434337 L 1192 402.9975213433698 L 1193 402.44497524473394 L 1194 401.89235210855907 L 1195 401.3397476092158 L 1196 400.7872574178476 L 1197 400.2349771858087 L 1198 399.6830025281031 L 1199 399.13142900683164 L 1200 398.5803521146473 L 1201 398.02986725822274 L 1202 397.4800697417329 L 1203 396.93105475035514 L 1204 396.38291733379 L 1205 395.83575238980563 L 1206 395.289654647808 L 1207 394.7447186524411 L 1208 394.2010387472184 L 1209 393.6587090581892 L 1210 393.11782347764307 L 1211 392.5784756478544 L 1212 392.0407589448705 L 1213 391.5047664623451 L 1214 390.970590995422 L 1215 390.438325024669 L 1216 389.90806070006727 L 1217 389.3798898250577 L 1218 388.853903840647 L 1219 388.3301938095768 L 1220 387.8088504005583 L 1221 387.28996387257484 L 1222 386.7736240592552 L 1223 386.25992035332195 L 1224 385.748941691114 L 1225 385.24077653718996 L 1226 384.73551286901215 L 1227 384.23323816171535 L 1228 383.73403937296246 L 1229 383.2380029278896 L 1230 382.7452147041438 L 1231 382.2557600170149 L 1232 381.76972360466505 L 1233 381.28718961345857 L 1234 380.8082415833937 L 1235 380.3329624336394 L 1236 379.8614344481799 L 1237 379.39373926156895 L 1238 378.9299578447966 L 1239 378.4701704912711 L 1240 378.01445680291783 L 1241 377.5628956763974 L 1242 377.1155652894474 L 1243 376.6725430873471 L 1244 376.2339057695097 L 1245 375.7997292762035 L 1246 375.3700887754043 L 1247 374.9450586497824 L 1248 374.52471248382403 L 1249 374.1091230510925 L 1250 373.698362301629 L 1251 373.2925013494954 L 1252 372.8916104604634 L 1253 372.4957590398491 L 1254 372.10501562049683 L 1255 371.71944785091455 L 1256 371.33912248356194 L 1257 370.96410536329364 L 1258 370.59446141595953 L 1259 370.2302546371648 L 1260 369.8715480811898 L 1261 369.51840385007415 L 1262 369.1708830828649 L 1263 368.829045945032 L 1264 368.49295161805145 L 1265 368.16265828915976 L 1266 367.83822314127997 L 1267 367.51970234312176 L 1268 367.20715103945713 L 1269 366.90062334157324 L 1270 366.600172317904 L 1271 366.3058499848431 L 1272 366.0177072977379 L 1273 365.73579414206796 L 1274 365.46015932480844 L 1275 365.1908505659802 L 1276 364.9279144903882 L 1277 364.6713966195494 L 1278 364.4213413638119 L 1279 364.1777920146658 L 1280 363.94079073724896 L 1281 363.71037856304645 L 1282 363.4865953827872 L 1283 363.2694799395375 L 1284 363.05906982199394 L 1285 362.8554014579754 L 1286 362.6585101081165 L 1287 362.4684298597629 L 1288 362.28519362107033 L 1289 362.10883311530637 L 1290 361.9393788753591 L 1291 361.7768602384508 L 1292 361.6213053410586 L 1293 361.47274111404346 L 1294 361.3311932779878 L 1295 361.1966863387422 L 1296 361.0692435831834 L 1297 360.9488870751818 L 1298 360.8356376517825 L 1299 360.72951491959725 L 1300 360.6305372514101 L 1301 360.53872178299673 L 1302 360.4540844101577 L 1303 360.37663978596635 L 1304 360.306401318232 L 1305 360.24338116717877 L 1306 360.1875902433402 L 1307 360.1390382056705 L 1308 360.09773345987196 L 1309 360.0636831569401 L 1310 360.03689319192546 L 1311 360.01736820291285 L 1312 360.0051115702188 L 1313 360.00012541580577 L 1314 360.0024106029152 L 1315 360.01196673591795 L 1316 360.02879216038264 L 1317 360.05288396336243 L 1318 360.0842379738989 L 1319 360.12284876374446 L 1320 360.168709648302 L 1321 360.22181268778223 L 1322 360.28214868857833 L 1323 360.3497072048574 L 1324 360.42447654036926 L 1325 360.506443750471 L 1326 360.59559464436853 L 1327 360.6919137875729 L 1328 360.7953845045727 L 1329 360.9059888817212 L 1330 361.0237077703374 L 1331 361.1485207900212 L 1332 361.2804063321822 L 1333 361.4193415637803 L 1334 361.5653024312789 L 1335 361.7182636648093 L 1336 361.8781987825456 L 1337 362.04508009528934 L 1338 362.2188787112633 L 1339 362.39956454111353 L 1340 362.5871063031186 L 1341 362.78147152860527 L 1342 362.98262656757 L 1343 363.1905365945041 L 1344 363.4051656144238 L 1345 363.62647646910136 L 1346 363.85443084349833 L 1347 364.0889892723991 L 1348 364.33011114724326 L 1349 364.57775472315615 L 1350 364.83187712617604 L 1351 365.09243436067675 L 1352 365.3593813169845 L 1353 365.63267177918794 L 1354 365.9122584331388 L 1355 366.1980928746439 L 1356 366.490125617845 L 1357 366.7883061037861 L 1358 367.0925827091665 L 1359 367.40290275527866 L 1360 367.71921251712786 L 1361 368.0414572327339 L 1362 368.36958111261146 L 1363 368.70352734942924 L 1364 369.04323812784463 L 1365 369.3886546345133 L 1366 369.73971706827126 L 1367 370.09636465048806 L 1368 370.4585356355896 L 1369 370.82616732174756 L 1370 371.19919606173517 L 1371 371.57755727394607 L 1372 371.9611854535753 L 1373 372.35001418395984 L 1374 372.7439761480777 L 1375 373.14300314020153 L 1376 373.5470260777075 L 1377 373.9559750130354 L 1378 374.3697791457981 L 1379 374.7883668350395 L 1380 375.2116656116374 L 1381 375.63960219084976 L 1382 376.07210248500263 L 1383 376.5090916163164 L 1384 376.9504939298698 L 1385 377.3962330066971 L 1386 377.84623167701886 L 1387 378.3004120336021 L 1388 378.758695445248 L 1389 379.2210025704054 L 1390 379.6872533709069 L 1391 380.15736712582543 L 1392 380.6312624454498 L 1393 381.1088572853752 L 1394 381.59006896070736 L 1395 382.0748141603775 L 1396 382.5630089615661 L 1397 383.0545688442319 L 1398 383.549408705745 L 1399 384.04744287562016 L 1400 384.54858513034907 L 1401 385.0527487083277 L 1402 385.5598463248773 L 1403 386.06979018735603 L 1404 386.58249201035767 L 1405 387.0978630309969 L 1406 387.6158140242763 L 1407 388.13625531853364 L 1408 388.65909681096673 L 1409 389.18424798323264 L 1410 389.7116179171187 L 1411 390.24111531028325 L 1412 390.77264849206273 L 1413 391.3061254393419 L 1414 391.84145379248594 L 1415 392.3785408713304 L 1416 392.91729369122675 L 1417 393.4576189791406 L 1418 393.99942318979953 L 1419 394.542612521889 L 1420 395.0870929342913 L 1421 395.632770162367 L 1422 396.1795497342751 L 1423 396.7273369873278 L 1424 397.2760370843801 L 1425 397.8255550302484 L 1426 398.3757956881567 L 1427 398.9266637962076 L 1428 399.4780639838748 L 1429 400.0299007885141 L 1430 400.5820786718908 L 1431 401.13450203672045 L 1432 401.68707524321843 L 1433 402.2397026256586 L 1434 402.7922885089354 L 1435 403.3447372251281 L 1436 403.8969531300631 L 1437 404.4488406198731 L 1438 405.0003041475486 L 1439 405.55124823947943 L 1440 406.1015775119842 L 1441 406.65119668782415 L 1442 407.20001061269755 L 1443 407.747924271714 L 1444 408.294842805844 L 1445 408.84067152834183 L 1446 409.3853159411383 L 1447 409.92868175120105 L 1448 410.4706748868593 L 1449 411.0112015140899 L 1450 411.55016805276364 L 1451 412.0874811928452 L 1452 412.62304791054856 L 1453 413.1567754844418 L 1454 413.6885715114998 L 1455 414.2183439231015 L 1456 414.7460010009698 L 1457 415.2714513930506 L 1458 415.79460412932804 L 1459 416.31536863757407 L 1460 416.83365475902946 L 1461 417.34937276401195 L 1462 417.8624333674515 L 1463 418.3727477443479 L 1464 418.8802275451488 L 1465 419.3847849110455 L 1466 419.88633248918364 L 1467 420.3847834477866 L 1468 420.88005149118817 L 1469 421.37205087477327 L 1470 421.86069641982203 L 1471 422.3459035282571 L 1472 422.8275881972896 L 1473 423.30566703396255 L 1474 423.78005726958844 L 1475 424.2506767740788 L 1476 424.7174440701629 L 1477 425.1802783474943 L 1478 425.63909947664075 L 1479 426.0938280229575 L 1480 426.54438526033886 L 1481 426.99069318484834 L 1482 427.43267452822323 L 1483 427.8702527712519 L 1484 428.3033521570212 L 1485 428.73189770403235 L 1486 429.1558152191821 L 1487 429.57503131060764 L 1488 429.9894734003931 L 1489 430.3990697371342 L 1490 430.8037494083609 L 1491 431.20344235281397 L 1492 431.59807937257483 L 1493 431.98759214504554 L 1494 432.3719132347771 L 1495 432.75097610514473 L 1496 433.12471512986707 L 1497 433.49306560436764 L 1498 433.85596375697764 L 1499 434.213346759976 L 1500 434.5651527404667 L 1501 434.91132079109093 L 1502 435.25179098057157 L 1503 435.58650436408914 L 1504 435.91540299348674 L 1505 436.23842992730243 L 1506 436.55552924062727 L 1507 436.86664603478783 L 1508 437.17172644685036 L 1509 437.4707176589459 L 1510 437.76356790741477 L 1511 438.05022649176817 L 1512 438.33064378346586 L 1513 438.6047712345082 L 1514 438.87256138584104 L 1515 439.1339678755726 L 1516 439.38894544699934 L 1517 439.637449956442 L 1518 439.87943838088734 L 1519 440.114868825437 L 1520 440.34370053056034 L 1521 440.56589387915164 L 1522 440.78141040338835 L 1523 440.99021279139106 L 1524 441.1922648936835 L 1525 441.38753172945064 L 1526 441.5759794925952 L 1527 441.75757555759 L 1528 441.9322884851267 L 1529 442.10008802755874 L 1530 442.2609451341379 L 1531 442.4148319560439 L 1532 442.5617218512058 L 1533 442.70158938891456 L 1534 442.8344103542255 L 1535 442.960161752151 L 1536 443.0788218116412 L 1537 443.1903699893534 L 1538 443.29478697320866 L 1539 443.39205468573505" stroke-linecap="round" stroke-linejoin="round" stroke-miterlimit="10"/></g></svg>