<svg version="1.1" xmlns="http://www.w3.org/2000/svg" xmlns:xlink="http://www.w3.org/1999/xlink" width="1560" height="804"><defs/><g><path fill="none" stroke="#02063B" paint-order="fill stroke markers" d=" M 20 419.22902576438344 L 21 420.0826784635822 L 22 420.9351921741474 L 23 421.7865131980923 L 24 422.63658791255506 L 25 423.48536277317606 L 26 424.3327843174708 L 27 425.1787991681971 L 28 426.0233540367173 L 29 426.8663957263551 L 30 427.70787113574585 L 31 428.54772726218147 L 32 429.3859112049491 L 33 430.222370168663 L 34 431.05705146659034 L 35 431.8899025239692 L 36 432.7208708813209 L 37 433.54990419775373 L 38 434.3769502542601 L 39 435.2019569570057 L 40 436.0248723406104 L 41 436.845644571422 L 42 437.6642219507806 L 43 438.48055291827546 L 44 439.2945860549923 L 45 440.10627008675226 L 46 440.9155538873415 L 47 441.72238648173146 L 48 442.52671704928974 L 49 443.32849492698136 L 50 444.12766961255943 L 51 444.9241907677467 L 52 445.718008221406 L 53 446.5090719727004 L 54 447.29733219424264 L 55 448.0827392352339 L 56 448.86524362459073 L 57 449.64479607406173 L 58 450.42134748133145 L 59 451.1948489331138 L 60 451.9652517082327 L 61 452.732507280691 L 62 453.49656732272683 L 63 454.25738370785814 L 64 455.01490851391355 L 65 455.76909402605116 L 66 456.51989273976403 L 67 457.2672573638721 L 68 458.01114082350136 L 69 458.75149626304875 L 70 459.48827704913333 L 71 460.2214367735341 L 72 460.95092925611266 L 73 461.6767085477223 L 74 462.3987289331021 L 75 463.11694493375654 L 76 463.83131131081996 L 77 464.5417830679062 L 78 465.24831545394267 L 79 465.95086396598924 L 80 466.6493843520414 L 81 467.3438326138175 L 82 468.03416500953006 L 83 468.7203380566412 L 84 469.40230853460133 L 85 470.08003348757154 L 86 470.7534702271294 L 87 471.42257633495757 L 88 472.08730966551593 L 89 472.747628348696 L 90 473.4034907924585 L 91 474.0548556854528 L 92 474.7016819996194 L 93 475.34392899277384 L 94 475.9815562111733 L 95 476.61452349206445 L 96 477.2427909662133 L 97 477.8663190604166 L 98 478.48506849999416 L 99 479.09900031126296 L 100 479.70807582399186 L 101 480.3122566738376 L 102 480.9115048047609 L 103 481.5057824714238 L 104 482.0950522415671 L 105 482.67927699836804 L 106 483.25841994277846 L 107 483.83244459584233 L 108 484.4013148009938 L 109 484.96499472633457 L 110 485.5234488668905 L 111 486.0766420468485 L 112 486.624539421772 L 113 487.16710648079555 L 114 487.7043090487988 L 115 488.236113288559 L 116 488.7624857028824 L 117 489.28339313671404 L 118 489.7988027792264 L 119 490.3086821658856 L 120 490.8129991804969 L 121 491.3117220572271 L 122 491.8048193826055 L 123 492.29226009750295 L 124 492.7740134990876 L 125 493.2500492427593 L 126 493.72033734406074 L 127 494.18484818056595 L 128 494.64355249374654 L 129 495.09642139081427 L 130 495.5434263465412 L 131 495.98453920505614 L 132 496.41973218161843 L 133 496.84897786436795 L 134 497.27224921605153 L 135 497.6895195757263 L 136 498.1007626604389 L 137 498.5059525668806 L 138 498.9050637730195 L 139 499.2980711397078 L 140 499.6849499122652 L 141 500.06567572203835 L 142 500.44022458793546 L 143 500.8085729179372 L 144 501.1706975105825 L 145 501.52657555642986 L 146 501.87618463949434 L 147 502.21950273865934 L 148 502.55650822906347 L 149 502.8871798834631 L 150 503.21149687356905 L 151 503.5294387713586 L 152 503.84098555036246 L 153 504.1461175869257 L 154 504.4448156614443 L 155 504.7370609595753 L 156 505.0228350734223 L 157 505.3021200026947 L 158 505.57489815584154 L 159 505.84115235115956 L 160 506.10086581787533 L 161 506.3540221972018 L 162 506.60060554336866 L 163 506.8406003246265 L 164 507.07399142422554 L 165 507.3007641413674 L 166 507.5209041921312 L 167 507.7343977103734 L 168 507.94123124860107 L 169 508.14139177881907 L 170 508.33486669335025 L 171 508.5216438056302 L 172 508.70171135097434 L 173 508.8750579873191 L 174 509.0416727959365 L 175 509.20154528212163 L 176 509.354665375854 L 177 509.50102343243145 L 178 509.640610233078 L 179 509.7734169855243 L 180 509.8994353245615 L 181 510.0186573125682 L 182 510.13107544001036 L 183 510.2366826259144 L 184 510.33547221831304 L 185 510.4274379946645 L 186 510.5125741622443 L 187 510.5908753585102 L 188 510.66233665143994 L 189 510.72695353984193 L 190 510.7847219536387 L 191 510.8356382541235 L 192 510.879699234189 L 193 510.9169021185299 L 194 510.94724456381726 L 195 510.9707246588464 L 196 510.98734092465713 L 197 510.997092314627 L 198 510.9999782145371 L 199 510.9959984426109 L 200 510.9851532495256 L 201 510.96744331839625 L 202 510.9428697647331 L 203 510.91143413637076 L 204 510.87313841337124 L 205 510.8279850078989 L 206 510.77597676406873 L 207 510.71711695776696 L 208 510.65140929644497 L 209 510.57885791888555 L 210 510.49946739494237 L 211 510.41324272525213 L 212 510.3201893409194 L 213 510.22031310317476 L 214 510.1136203030054 L 215 510.00011766075903 L 216 509.87981232572054 L 217 509.7527118756616 L 218 509.6188243163635 L 219 509.47815808111267 L 220 509.3307220301698 L 221 509.1765254502113 L 222 509.01557805374483 L 223 508.8478899784973 L 224 508.67347178677625 L 225 508.4923344648046 L 226 508.3044894220289 L 227 508.10994849040026 L 228 507.9087239236292 L 229 507.7008283964143 L 230 507.486275003643 L 231 507.2650772595675 L 232 507.0372490969531 L 233 506.80280486620086 L 234 506.5617593344436 L 235 506.3141276846157 L 236 506.05992551449685 L 237 505.79916883572946 L 238 505.5318740728103 L 239 505.25805806205574 L 240 504.97773805054163 L 241 504.6909316950164 L 242 504.3976570607893 L 243 504.0979326205925 L 244 503.7917772534173 L 245 503.4792102433253 L 246 503.1602512782334 L 247 502.83492044867387 L 248 502.5032382465289 L 249 502.1652255637399 L 250 501.82090369099143 L 251 501.4702943163703 L 252 501.1134195239993 L 253 500.7503017926464 L 254 500.38096399430856 L 255 500.00542939277136 L 256 499.62372164214366 L 257 499.2358647853673 L 258 498.84188325270327 L 259 498.4418018601923 L 260 498.0356458080921 L 261 497.6234406792903 L 262 497.2052124376923 L 263 496.78098742658653 L 264 496.3507923669848 L 265 495.91465435593955 L 266 495.4726008648364 L 267 495.02465973766454 L 268 494.5708591892625 L 269 494.11122780354094 L 270 493.6457945316823 L 271 493.17458869031736 L 272 492.6976399596783 L 273 492.2149783817297 L 274 491.7266343582757 L 275 491.23263864904555 L 276 490.73302236975564 L 277 490.2278169901503 L 278 489.71705433201873 L 279 489.2007665671911 L 280 488.67898621551234 L 281 488.1517461427932 L 282 487.6190795587404 L 283 487.081020014865 L 284 486.53760140236875 L 285 485.98885795000956 L 286 485.43482422194535 L 287 484.87553511555717 L 288 484.3110258592507 L 289 483.7413320102378 L 290 483.1664894522963 L 291 482.5865343935102 L 292 482.0015033639886 L 293 481.41143321356543 L 294 480.8163611094774 L 295 480.2163245340236 L 296 479.6113612822045 L 297 479.00150945934104 L 298 478.38680747867465 L 299 477.76729405894787 L 300 477.14300822196503 L 301 476.51398929013493 L 302 475.8802768839935 L 303 475.2419109197086 L 304 474.59893160656543 L 305 473.9513794444342 L 306 473.2992952212189 L 307 472.64272001028814 L 308 471.981695167888 L 309 471.3162623305374 L 310 470.6464634124052 L 311 469.9723406026701 L 312 469.2939363628635 L 313 468.6112934241946 L 314 467.9244547848593 L 315 467.2334637073312 L 316 466.5383637156374 L 317 465.8391985926161 L 318 465.1360123771597 L 319 464.4288493614402 L 320 463.7177540881198 L 321 463.00277134754504 L 322 462.28394617492535 L 323 461.56132384749685 L 324 460.8349498816702 L 325 460.1048700301634 L 326 459.3711302791204 L 327 458.63377684521413 L 328 457.8928561727355 L 329 457.1484149306681 L 330 456.4005000097485 L 331 455.649158519513 L 332 454.8944377853296 L 333 454.136385345418 L 334 453.37504894785445 L 335 452.61047654756476 L 336 451.8427163033035 L 337 451.0718165746205 L 338 450.29782591881514 L 339 449.5207930878771 L 340 448.74076702541674 L 341 447.95779686358094 L 342 447.1719319199594 L 343 446.38322169447764 L 344 445.5917158662794 L 345 444.79746429059736 L 346 444.0005169956128 L 347 443.2009241793046 L 348 442.39873620628714 L 349 441.5940036046382 L 350 440.78677706271617 L 351 439.9771074259673 L 352 439.1650456937231 L 353 438.35064301598794 L 354 437.5339506902173 L 355 436.71502015808653 L 356 435.89390300225097 L 357 435.0706509430963 L 358 434.2453158354814 L 359 433.4179496654717 L 360 432.5886045470649 L 361 431.7573327189083 L 362 430.92418654100857 L 363 430.0892184914334 L 364 429.2524811630065 L 365 428.41402725999444 L 366 427.573909594787 L 367 426.7321810845709 L 368 425.8888947479965 L 369 425.04410370183814 L 370 424.19786115764856 L 371 423.3502204184072 L 372 422.50123487516294 L 373 421.6509580036707 L 374 420.7994433610236 L 375 419.94674458227905 L 376 419.0929153770807 L 377 418.23800952627545 L 378 417.3820808785255 L 379 416.52518334691706 L 380 415.6673709055641 L 381 414.8086975862088 L 382 413.9492174748181 L 383 413.0889847081771 L 384 412.2280534704791 L 385 411.36647798991237 L 386 410.5043125352447 L 387 409.64161141240527 L 388 408.77842896106364 L 389 407.91481955120713 L 390 407.0508375797165 L 391 406.1865374669391 L 392 405.3219736532615 L 393 404.45720059568015 L 394 403.59227276437133 L 395 402.72724463926005 L 396 401.86217070658887 L 397 400.99710545548544 L 398 400.1321033745307 L 399 399.26721894832656 L 400 398.4025066540642 L 401 397.5380209580925 L 402 396.67381631248736 L 403 395.8099471516222 L 404 394.9464678887387 L 405 394.0834329125198 L 406 393.2208965836638 L 407 392.35891323146024 L 408 391.497537150368 L 409 390.6368225965951 L 410 389.7768237846815 L 411 388.91759488408405 L 412 388.05919001576467 L 413 387.20166324878124 L 414 386.34506859688184 L 415 385.4894600151028 L 416 384.6348913963699 L 417 383.781416568104 L 418 382.9290892888304 L 419 382.07796324479295 L 420 381.2280920465721 L 421 380.3795292257083 L 422 379.5323282313304 L 423 378.68654242678844 L 424 377.84222508629284 L 425 376.99942939155875 L 426 376.15820842845613 L 427 375.3186151836659 L 428 374.4807025413426 L 429 373.64452327978336 L 430 372.8101300681033 L 431 371.97757546291825 L 432 371.14691190503413 L 433 370.3181917161439 L 434 369.4914670955319 L 435 368.66679011678605 L 436 367.8442127245178 L 437 367.02378673108996 L 438 366.2055638133537 L 439 365.3895955093931 L 440 364.57593321527884 L 441 363.7646281818314 L 442 362.9557315113924 L 443 362.1492941546057 L 444 361.3453669072086 L 445 360.5440004068319 L 446 359.74524512981066 L 447 358.9491513880045 L 448 358.1557693256288 L 449 357.3651489160961 L 450 356.5773399588685 L 451 355.79239207632077 L 452 355.0103547106148 L 453 354.2312771205854 L 454 353.45520837863745 L 455 352.6821973676551 L 456 351.9122927779226 L 457 351.14554310405754 L 458 350.38199664195616 L 459 349.6217014857515 L 460 348.86470552478363 L 461 348.11105644058375 L 462 347.36080170387044 L 463 346.6139885715596 L 464 345.8706640837882 L 465 345.1308750609508 L 466 344.39466810075095 L 467 343.66208957526567 L 468 342.93318562802483 L 469 342.2080021711046 L 470 341.4865848822356 L 471 340.76897920192556 L 472 340.05523033059745 L 473 339.345383225742 L 474 338.6394825990864 L 475 337.93757291377756 L 476 337.2396983815818 L 477 336.54590296009974 L 478 335.8562303499978 L 479 335.1707239922555 L 480 334.48942706542914 L 481 333.8123824829319 L 482 333.13963289033154 L 483 332.47122066266314 L 484 331.807187901761 L 485 331.14757643360616 L 486 330.49242780569205 L 487 329.8417832844075 L 488 329.19568385243747 L 489 328.55417020618154 L 490 327.91728275319065 L 491 327.285061609622 L 492 326.6575465977119 L 493 326.0347772432678 L 494 325.4167927731784 L 495 324.80363211294286 L 496 324.1953338842193 L 497 323.5919364023916 L 498 322.99347767415634 L 499 322.3999953951287 L 500 321.8115269474682 L 501 321.22810939752395 L 502 320.6497794935 L 503 320.0765736631406 L 504 319.5085280114358 L 505 318.94567831834723 L 506 318.3880600365543 L 507 317.83570828922115 L 508 317.28865786778454 L 509 316.74694322976194 L 510 316.2105984965817 L 511 315.6796574514334 L 512 315.15415353713996 L 513 314.6341198540515 L 514 314.1195891579598 L 515 313.6105938580358 L 516 313.1071660147877 L 517 312.6093373380416 L 518 312.11713918494445 L 519 311.6306025579886 L 520 311.1497581030592 L 521 310.674636107504 L 522 310.2052664982253 L 523 309.7416788397951 L 524 309.2839023325929 L 525 308.83196581096644 L 526 308.3858977414154 L 527 307.9457262207986 L 528 307.51147897456366 L 529 307.0831833550014 L 530 306.6608663395224 L 531 306.24455452895813 L 532 305.834274145885 L 533 305.43005103297315 L 534 305.0319106513583 L 535 304.6398780790382 L 536 304.25397800929284 L 537 303.8742347491294 L 538 303.5006722177508 L 539 303.1333139450494 L 540 302.7721830701247 L 541 302.41730233982605 L 542 302.0686941073197 L 543 301.72638033068085 L 544 301.3903825715107 L 545 301.0607219935782 L 546 300.73741936148696 L 547 300.42049503936744 L 548 300.10996898959417 L 549 299.8058607715285 L 550 299.50818954028637 L 551 299.2169740455321 L 552 298.9322326302969 L 553 298.65398322982406 L 554 298.3822433704388 L 555 298.1170301684446 L 556 297.85836032904484 L 557 297.6062501452908 L 558 297.36071549705525 L 559 297.1217718500323 L 560 296.88943425476316 L 561 296.66371734568827 L 562 296.4446353402254 L 563 296.23220203787406 L 564 296.02643081934656 L 565 295.8273346457249 L 566 295.6349260576445 L 567 295.44921717450444 L 568 295.2702196937037 L 569 295.09794488990485 L 570 294.93240361432356 L 571 294.773606294045 L 572 294.6215629313675 L 573 294.47628310317225 L 574 294.3377759603199 L 575 294.20605022707457 L 576 294.08111420055394 L 577 293.96297575020697 L 578 293.851642317318 L 579 293.7471209145382 L 580 293.64941812544345 L 581 293.55854010412037 L 582 293.4744925747781 L 583 293.3972808313878 L 584 293.32690973734947 L 585 293.2633837251856 L 586 293.2067067962615 L 587 293.156882520534 L 588 293.1139140363258 L 589 293.0778040501285 L 590 293.04855483643166 L 591 293.02616823757967 L 592 293.01064566365574 L 593 293.00198809239316 L 594 293.0001960691135 L 595 293.0052697066924 L 596 293.0172086855525 L 597 293.03601225368334 L 598 293.0616792266892 L 599 293.094207987863 L 600 293.1335964882889 L 601 293.17984224697074 L 602 293.23294235098865 L 603 293.29289345568253 L 604 293.3596917848624 L 605 293.43333313104665 L 606 293.51381285572694 L 607 293.6011258896602 L 608 293.6952667331881 L 609 293.7962294565833 L 610 293.90400770042345 L 611 294.01859467599087 L 612 294.139983165701 L 613 294.26816552355655 L 614 294.40313367562925 L 615 294.54487912056845 L 616 294.6933929301365 L 617 294.84866574977116 L 618 295.0106877991748 L 619 295.1794488729305 L 620 295.3549383411448 L 621 295.5371451501175 L 622 295.7260578230374 L 623 295.92166446070564 L 624 296.12395274228504 L 625 296.33290992607624 L 626 296.5485228503202 L 627 296.7707779340271 L 628 296.9996611778321 L 629 297.2351581648769 L 630 297.47725406171793 L 631 297.7259336192605 L 632 297.9811811737195 L 633 298.2429806476061 L 634 298.51131555074005 L 635 298.7861689812888 L 636 299.0675236268318 L 637 299.35536176545116 L 638 299.6496652668478 L 639 299.9504155934836 L 640 300.2575938017488 L 641 300.5711805431553 L 642 300.8911560655556 L 643 301.2175002143866 L 644 301.5501924339393 L 645 301.8892117686535 L 646 302.2345368644379 L 647 302.5861459700149 L 648 302.94401693829064 L 649 303.3081272277504 L 650 303.67845390387794 L 651 304.05497364060045 L 652 304.43766272175776 L 653 304.82649704259586 L 654 305.22145211128566 L 655 305.6225030504654 L 656 306.0296245988077 L 657 306.4427911126105 L 658 306.8619765674128 L 659 307.2871545596334 L 660 307.71829830823424 L 661 308.15538065640715 L 662 308.5983740732846 L 663 309.04725065567357 L 664 309.50198212981337 L 665 309.9625398531562 L 666 310.42889481617163 L 667 310.90101764417363 L 668 311.3788785991709 L 669 311.86244758174 L 670 312.35169413292124 L 671 312.8465874361372 L 672 313.3470963191338 L 673 313.8531892559438 L 674 314.3648343688725 L 675 314.8819994305058 L 676 315.40465186573994 L 677 315.9327587538334 L 678 316.4662868304807 L 679 317.00520248990716 L 680 317.5494717869862 L 681 318.0990604393771 L 682 318.6539338296847 L 683 319.21405700763944 L 684 319.7793946922992 L 685 320.3499112742714 L 686 320.9255708179558 L 687 321.5063370638084 L 688 322.0921734306251 L 689 322.6830430178457 L 690 323.2789086078785 L 691 323.87973266844455 L 692 324.48547735494145 L 693 325.0961045128273 L 694 325.71157568002394 L 695 326.33185208933963 L 696 326.95689467091086 L 697 327.5866640546632 L 698 328.2211205727913 L 699 328.8602242622573 L 700 329.5039348673084 L 701 330.15221184201175 L 702 330.80501435280917 L 703 331.46230128108857 L 704 332.1240312257743 L 705 332.79016250593463 L 706 333.4606531634074 L 707 334.1354609654426 L 708 334.8145434073627 L 709 335.4978577152401 L 710 336.18536084859073 L 711 336.8770095030859 L 712 337.5727601132794 L 713 338.27256885535166 L 714 338.9763916498703 L 715 339.6841841645666 L 716 340.3959018171275 L 717 341.1114997780043 L 718 341.830932973236 L 719 342.5541560872885 L 720 343.28112356590896 L 721 344.01178961899524 L 722 344.74610822347984 L 723 345.48403312622924 L 724 346.22551784695673 L 725 346.9705156811507 L 726 347.71897970301586 L 727 348.4708627684295 L 728 349.2261175179108 L 729 349.9846963796037 L 730 350.7465515722737 L 731 351.5116351083172 L 732 352.2798987967843 L 733 353.05129424641444 L 734 353.8257728686838 L 735 354.60328588086657 L 736 355.38378430910717 L 737 356.1672189915051 L 738 356.95354058121166 L 739 357.74269954953814 L 740 358.53464618907554 L 741 359.3293306168255 L 742 360.126702777342 L 743 360.9267124458852 L 744 361.7293092315838 L 745 362.5344425806099 L 746 363.34206177936295 L 747 364.152115957664 L 748 364.9645540919603 L 749 365.7793250085385 L 750 366.59637738674866 L 751 367.4156597622365 L 752 368.2371205301849 L 753 369.06070794856464 L 754 369.8863701413935 L 755 370.7140551020035 L 756 371.5437106963171 L 757 372.3752846661307 L 758 373.20872463240653 L 759 374.0439780985716 L 760 374.8809924538246 L 761 375.71971497644967 L 762 376.5600928371371 L 763 377.40207310231114 L 764 378.2456027374639 L 765 379.09062861049625 L 766 379.9370974950641 L 767 380.7849560739313 L 768 381.63415094232795 L 769 382.4846286113139 L 770 383.33633551114855 L 771 384.1892179946644 L 772 385.0432223406467 L 773 385.8982947572168 L 774 386.7543813852208 L 775 387.61142830162186 L 776 388.4693815228964 L 777 389.32818700843495 L 778 390.18779066394563 L 779 391.0481383448615 L 780 391.9091758597513 L 781 392.77084897373237 L 782 393.63310341188713 L 783 394.4958848626818 L 784 395.35913898138705 L 785 396.2228113935012 L 786 397.0868476981754 L 787 397.9511934716397 L 788 398.8157942706316 L 789 399.68059563582506 L 790 400.54554309526077 L 791 401.4105821677772 L 792 402.2756583664425 L 793 403.14071720198604 L 794 404.0057041862312 L 795 404.8705648355268 L 796 405.73524467417946 L 797 406.5996892378845 L 798 407.4638440771568 L 799 408.32765476076037 L 800 409.19106687913677 L 801 410.0540260478323 L 802 410.91647791092356 L 803 411.7783681444414 L 804 412.63964245979247 L 805 413.5002466071784 L 806 414.3601263790137 L 807 415.21922761333946 L 808 416.07749619723535 L 809 416.9348780702277 L 810 417.7913192276949 L 811 418.64676572426896 L 812 419.5011636772335 L 813 420.35445926991747 L 814 421.2065987550853 L 815 422.0575284583219 L 816 422.90719478141386 L 817 423.7555442057253 L 818 424.602523295569 L 819 425.4480787015719 L 820 426.292157164036 L 821 427.1347055162926 L 822 427.97567068805137 L 823 428.81499970874296 L 824 429.6526397108558 L 825 430.4885379332658 L 826 431.3226417245598 L 827 432.1548985463521 L 828 432.9852559765934 L 829 433.8136617128731 L 830 434.64006357571344 L 831 435.4644095118564 L 832 436.2866475975422 L 833 437.1067260417801 L 834 437.9245931896105 L 835 438.74019752535844 L 836 439.5534876758786 L 837 440.3644124137912 L 838 441.1729206607086 L 839 441.9789614904528 L 840 442.782484132263 L 841 443.58343797399345 L 842 444.3817725653018 L 843 445.17743762082637 L 844 445.97038302335375 L 845 446.76055882697574 L 846 447.547915260235 L 847 448.33240272926025 L 848 449.11397182089 L 849 449.89257330578516 L 850 450.6681581415295 L 851 451.44067747571916 L 852 452.21008264903946 L 853 452.9763251983301 L 854 453.73935685963727 L 855 454.49912957125446 L 856 455.25559547674897 L 857 456.0087069279768 L 858 456.7584164880837 L 859 457.5046769344931 L 860 458.2474412618807 L 861 458.98666268513506 L 862 459.72229464230463 L 863 460.4542907975306 L 864 461.18260504396517 L 865 461.90719150667627 L 866 462.62800454553667 L 867 463.34499875809905 L 868 464.05812898245534 L 869 464.76735030008206 L 870 465.47261803866905 L 871 466.17388777493363 L 872 466.8711153374186 L 873 467.5642568092743 L 874 468.25326853102536 L 875 468.93810710332014 L 876 469.61872938966474 L 877 470.29509251913987 L 878 470.9671538891015 L 879 471.6348711678637 L 880 472.29820229736583 L 881 472.95710549582094 L 882 473.611539260348 L 883 474.26146236958584 L 884 474.9068338862898 L 885 475.54761315990993 L 886 476.1837598291519 L 887 476.8152338245188 L 888 477.44199537083574 L 889 478.0640049897544 L 890 478.68122350223996 L 891 479.2936120310394 L 892 479.90113200312953 L 893 480.50374515214713 L 894 481.101413520799 L 895 481.694099463253 L 896 482.2817656475092 L 897 482.86437505775126 L 898 483.4418909966781 L 899 484.01427708781534 L 900 484.58149727780653 L 901 485.1435158386841 L 902 485.7002973701198 L 903 486.25180680165465 L 904 486.7980093949076 L 905 487.33887074576376 L 906 487.8743567865418 L 907 488.40443378813916 L 908 488.92906836215707 L 909 489.44822746300343 L 910 489.96187838997434 L 911 490.4699887893138 L 912 490.9725266562514 L 913 491.46946033701875 L 914 491.9607585308429 L 915 492.44639029191774 L 916 492.9263250313537 L 917 493.4005325191042 L 918 493.8689828858698 L 919 494.3316466249794 L 920 494.78849459424924 L 921 495.2394980178182 L 922 495.6846284879604 L 923 496.12385796687454 L 924 496.55715878844984 L 925 496.98450366000895 L 926 497.4058656640267 L 927 497.82121825982586 L 928 498.2305352852487 L 929 498.6337909583051 L 930 499.0309598787961 L 931 499.4220170299143 L 932 499.80693777981924 L 933 500.18569788318905 L 934 500.5582734827477 L 935 500.9246411107676 L 936 501.2847776905476 L 937 501.6386605378671 L 938 501.98626736241414 L 939 502.3275762691901 L 940 502.66256575988837 L 941 502.9912147342486 L 942 503.313502491386 L 943 503.6294087310947 L 944 503.93891355512704 L 945 504.2419974684465 L 946 504.5386413804559 L 947 504.82882660619947 L 948 505.1125348675404 L 949 505.38974829431146 L 950 505.66044942544124 L 951 505.9246212100536 L 952 506.1822470085416 L 953 506.43331059361594 L 954 506.6777961513268 L 955 506.91568828206 L 956 507.146972001507 L 957 507.3716327416088 L 958 507.5896563514733 L 959 507.8010290982671 L 960 508.0057376680801 L 961 508.2037691667641 L 962 508.3951111207452 L 963 508.5797514778094 L 964 508.7576786078617 L 965 508.9288813036588 L 966 509.0933487815147 L 967 509.2510706819803 L 968 509.40203707049574 L 969 509.5462384380162 L 970 509.6836657016107 L 971 509.81431020503453 L 972 509.93816371927426 L 973 510.055218443066 L 974 510.165467003387 L 975 510.26890245592006 L 976 510.36551828549057 L 977 510.45530840647746 L 978 510.53826716319594 L 979 510.6143893302542 L 980 510.68367011288234 L 981 510.74610514723435 L 982 510.801690500663 L 983 510.8504226719677 L 984 510.8922985916148 L 985 510.9273156219311 L 986 510.9554715572699 L 987 510.9767646241501 L 988 510.9911934813676 L 989 510.99875722008 L 990 510.99945536386394 L 991 510.9932878687447 L 992 510.9802551231995 L 993 510.9603579481327 L 994 510.9335975968241 L 995 510.89997575485006 L 996 510.8594945399774 L 997 510.81215650202984 L 998 510.7579646227276 L 999 510.69692231549953 L 1000 510.62903342526783 L 1001 510.5543022282062 L 1002 510.4727334314705 L 1003 510.38433217290196 L 1004 510.2891040207038 L 1005 510.18705497309054 L 1006 510.07819145790995 L 1007 509.96252033223834 L 1008 509.84004888194863 L 1009 509.7107848212514 L 1010 509.5747362922091 L 1011 509.43191186422297 L 1012 509.2823205334934 L 1013 509.12597172245347 L 1014 508.962875279175 L 1015 508.79304147674884 L 1016 508.616481012637 L 1017 508.43320500799973 L 1018 508.24322500699435 L 1019 508.0465529760485 L 1020 507.84320130310596 L 1021 507.63318279684705 L 1022 507.4165106858811 L 1023 507.1931986179138 L 1024 506.9632606588871 L 1025 506.72671129209357 L 1026 506.4835654172639 L 1027 506.23383834962857 L 1028 505.9775458189531 L 1029 505.71470396854716 L 1030 505.44532935424786 L 1031 505.1694389433771 L 1032 504.88705011367244 L 1033 504.5981806521928 L 1034 504.30284875419807 L 1035 504.0010730220029 L 1036 503.6928724638051 L 1037 503.3782664924882 L 1038 503.05727492439894 L 1039 502.72991797809897 L 1040 502.396216273091 L 1041 502.05619082852064 L 1042 501.70986306185193 L 1043 501.35725478751857 L 1044 500.9983882155497 L 1045 500.6332859501711 L 1046 500.26197098838134 L 1047 499.88446671850323 L 1048 499.50079691871053 L 1049 499.1109857555306 L 1050 498.7150577823217 L 1051 498.31303793772673 L 1052 497.9049515441024 L 1053 497.4908243059241 L 1054 497.07068230816697 L 1055 496.6445520146626 L 1056 496.2124602664326 L 1057 495.77443427999737 L 1058 495.3305016456623 L 1059 494.8806903257797 L 1060 494.4250286529873 L 1061 493.9635453284241 L 1062 493.4962694199222 L 1063 493.02323036017583 L 1064 492.5444579448879 L 1065 492.05998233089264 L 1066 491.5698340342566 L 1067 491.07404392835605 L 1068 490.57264324193284 L 1069 490.0656635571269 L 1070 489.55313680748725 L 1071 489.03509527596043 L 1072 488.5115715928571 L 1073 487.98259873379675 L 1074 487.4482100176307 L 1075 486.90843910434313 L 1076 486.36331999293145 L 1077 485.8128870192641 L 1078 485.2571748539185 L 1079 484.6962184999966 L 1080 484.1300532909205 L 1081 483.55871488820685 L 1082 482.9822392792205 L 1083 482.4006627749076 L 1084 481.8140220075088 L 1085 481.22235392825166 L 1086 480.6256958050231 L 1087 480.02408522002213 L 1088 479.4175600673926 L 1089 478.80615855083624 L 1090 478.1899191812064 L 1091 477.5688807740822 L 1092 476.9430824473237 L 1093 476.3125636186082 L 1094 475.67736400294683 L 1095 475.03752361018354 L 1096 474.39308274247463 L 1097 473.7440819917505 L 1098 473.09056223715834 L 1099 472.432564642488 L 1100 471.77013065357846 L 1101 471.1033019957075 L 1102 470.43212067096385 L 1103 469.7566289556008 L 1104 469.07686939737437 L 1105 468.39288481286235 L 1106 467.70471828476775 L 1107 467.01241315920527 L 1108 466.3160130429707 L 1109 465.6155618007947 L 1110 464.91110355257916 L 1111 464.20268267061886 L 1112 463.4903437768062 L 1113 462.7741317398205 L 1114 462.0540916723022 L 1115 461.3302689280109 L 1116 460.60270909896883 L 1117 459.8714580125891 L 1118 459.13656172878893 L 1119 458.39806653708894 L 1120 457.65601895369684 L 1121 456.91046571857794 L 1122 456.1614537925108 L 1123 455.4090303541296 L 1124 454.6532427969521 L 1125 453.8941387263946 L 1126 453.1317659567735 L 1127 452.3661725082934 L 1128 451.5974066040224 L 1129 450.8255166668548 L 1130 450.05055131646077 L 1131 449.2725593662243 L 1132 448.4915898201682 L 1133 447.70769186986763 L 1134 446.92091489135146 L 1135 446.1313084419925 L 1136 445.3389222573855 L 1137 444.5438062482149 L 1138 443.7460104971109 L 1139 442.9455852554946 L 1140 442.14258094041327 L 1141 441.33704813136416 L 1142 440.529037567109 L 1143 439.71860014247795 L 1144 438.9057869051638 L 1145 438.0906490525065 L 1146 437.2732379282687 L 1147 436.4536050194013 L 1148 435.63180195280074 L 1149 434.8078804920568 L 1150 433.9818925341925 L 1151 433.1538901063949 L 1152 432.3239253627382 L 1153 431.49205058089854 L 1154 430.6583181588612 L 1155 429.82278061162043 L 1156 428.98549056787107 L 1157 428.1465007666941 L 1158 427.3058640542344 L 1159 426.4636333803724 L 1160 425.61986179538854 L 1161 424.77460244662194 L 1162 423.92790857512273 L 1163 423.0798335122986 L 1164 422.2304306765553 L 1165 421.3797535699322 L 1166 420.5278557747321 L 1167 419.6747909501468 L 1168 418.82061282887634 L 1169 417.9653752137448 L 1170 417.1091319743117 L 1171 416.2519370434787 L 1172 415.3938444140921 L 1173 414.53490813554265 L 1174 413.6751823103606 L 1175 412.81472109080795 L 1176 411.95357867546767 L 1177 411.09180930582977 L 1178 410.2294672628747 L 1179 409.3666068636545 L 1180 408.50328245787114 L 1181 407.63954842445344 L 1182 406.7754591681319 L 1183 405.9110691160115 L 1184 405.04643271414386 L 1185 404.1816044240977 L 1186 403.31663871952816 L 1187 402.4515900827459 L 1188 401.58651300128537 L 1189 400.72146196447267 L 1190 399.8564914599933 L 1191 398.99165597046033 L 1192 398.12700996998245 L 1193 397.2626079207329 L 1194 396.39850426951887 L 1195 395.53475344435225 L 1196 394.6714098510211 L 1197 393.8085278696628 L 1198 392.94616185133884 L 1199 392.0843661146113 L 1200 391.2231949421215 L 1201 390.3627025771708 L 1202 389.5029432203039 L 1203 388.6439710258949 L 1204 387.78584009873646 L 1205 386.92860449063136 L 1206 386.0723181969883 L 1207 385.21703515342074 L 1208 384.36280923234955 L 1209 383.5096942396098 L 1210 382.65774391106163 L 1211 381.80701190920536 L 1212 380.9575518198017 L 1213 380.10941714849633 L 1214 379.2626613174497 L 1215 378.41733766197217 L 1216 377.57349942716434 L 1217 376.7311997645635 L 1218 375.89049172879555 L 1219 375.0514282742334 L 1220 374.2140622516612 L 1221 373.3784464049456 L 1222 372.54463336771346 L 1223 371.7126756600368 L 1224 370.88262568512414 L 1225 370.05453572602016 L 1226 369.2284579423126 L 1227 368.40444436684635 L 1228 367.58254690244655 L 1229 366.7628173186487 L 1230 365.9453072484389 L 1231 365.13006818500037 L 1232 364.3171514784707 L 1233 363.50660833270723 L 1234 362.6984898020619 L 1235 361.89284678816534 L 1236 361.0897300367209 L 1237 360.289190134308 L 1238 359.491277505196 L 1239 358.6960424081681 L 1240 357.90353493335544 L 1241 357.1138049990822 L 1242 356.32690234872143 L 1243 355.5428765475615 L 1244 354.7617769796844 L 1245 353.9836528448551 L 1246 353.2085531554225 L 1247 352.43652673323214 L 1248 351.66762220655124 L 1249 350.90188800700554 L 1250 350.1393723665288 L 1251 349.38012331432475 L 1252 348.62418867384173 L 1253 347.87161605976064 L 1254 347.12245287499553 L 1255 346.3767463077079 L 1256 345.6345433283344 L 1257 344.8958906866285 L 1258 344.1608349087153 L 1259 343.42942229416144 L 1260 342.7016989130587 L 1261 341.9777106031218 L 1262 341.2575029668017 L 1263 340.5411213684128 L 1264 339.82861093127576 L 1265 339.12001653487505 L 1266 338.4153828120324 L 1267 337.7147541460953 L 1268 337.01817466814134 L 1269 336.32568825419867 L 1270 335.63733852248197 L 1271 334.95316883064567 L 1272 334.2732222730522 L 1273 333.59754167805823 L 1274 332.92616960531655 L 1275 332.2591483430955 L 1276 331.5965199056154 L 1277 330.93832603040204 L 1278 330.2846081756577 L 1279 329.63540751765 L 1280 328.99076494811794 L 1281 328.3507210716966 L 1282 327.71531620335946 L 1283 327.0845903658787 L 1284 326.4585832873046 L 1285 325.8373343984632 L 1286 325.2208828304723 L 1287 324.6092674122771 L 1288 324.0025266682041 L 1289 323.4006988155346 L 1290 322.80382176209775 L 1291 322.2119331038824 L 1292 321.6250701226692 L 1293 321.0432697836827 L 1294 320.46656873326225 L 1295 319.89500329655414 L 1296 319.32860947522363 L 1297 318.76742294518704 L 1298 318.21147905436476 L 1299 317.6608128204548 L 1300 317.1154589287269 L 1301 316.57545172983805 L 1302 316.04082523766857 L 1303 315.5116131271797 L 1304 314.9878487322928 L 1305 314.4695650437891 L 1306 313.95679470723223 L 1307 313.4495700209119 L 1308 312.947922933809 L 1309 312.451885043584 L 1310 311.96148759458583 L 1311 311.47676147588453 L 1312 310.99773721932536 L 1313 310.5244449976054 L 1314 310.0569146223738 L 1315 309.59517554235305 L 1316 309.1392568414848 L 1317 308.6891872370975 L 1318 308.2449950780979 L 1319 307.80670834318494 L 1320 307.3743546390882 L 1321 306.947961198828 L 1322 306.52755488000105 L 1323 306.11316216308796 L 1324 305.7048091497858 L 1325 305.3025215613637 L 1326 304.90632473704295 L 1327 304.5162436324009 L 1328 304.13230281779886 L 1329 303.7545264768346 L 1330 303.38293840481924 L 1331 303.01756200727823 L 1332 302.65842029847704 L 1333 302.3055358999717 L 1334 301.9589310391839 L 1335 301.61862754800086 L 1336 301.28464686140023 L 1337 300.95701001609984 L 1338 300.6357376492329 L 1339 300.3208499970479 L 1340 300.01236689363384 L 1341 299.71030776967143 L 1342 299.4146916512085 L 1343 299.12553715846235 L 1344 298.84286250464623 L 1345 298.56668549482254 L 1346 298.297023524781 L 1347 298.03389357994354 L 1348 297.7773122342936 L 1349 297.5272956493328 L 1350 297.2838595730627 L 1351 297.04701933899287 L 1352 296.8167898651751 L 1353 296.59318565326396 L 1354 296.3762207876028 L 1355 296.16590893433727 L 1356 295.9622633405541 L 1357 295.7652968334469 L 1358 295.57502181950804 L 1359 295.3914502837473 L 1360 295.2145937889369 L 1361 295.04446347488323 L 1362 294.8810700577252 L 1363 294.72442382925925 L 1364 294.57453465629095 L 1365 294.4314119800137 L 1366 294.295064815414 L 1367 294.16550175070347 L 1368 294.04273094677814 L 1369 293.9267601367042 L 1370 293.81759662523115 L 1371 293.71524728833134 L 1372 293.61971857276717 L 1373 293.5310164956849 L 1374 293.4491466442357 L 1375 293.37411417522367 L 1376 293.305923814781 L 1377 293.2445798580704 L 1378 293.1900861690143 L 1379 293.142446180052 L 1380 293.10166289192273 L 1381 293.0677388734773 L 1382 293.04067626151596 L 1383 293.02047676065376 L 1384 293.0071416432135 L 1385 293.00067174914517 L 1386 293.0010674859733 L 1387 293.0083288287714 L 1388 293.0224553201632 L 1389 293.0434460703517 L 1390 293.07129975717515 L 1391 293.10601462619036 L 1392 293.14758849078305 L 1393 293.1960187323059 L 1394 293.25130230024314 L 1395 293.313435712403 L 1396 293.38241505513673 L 1397 293.4582359835855 L 1398 293.54089372195364 L 1399 293.6303830638098 L 1400 293.7266983724147 L 1401 293.82983358107646 L 1402 293.93978219353215 L 1403 294.05653728435755 L 1404 294.18009149940326 L 1405 294.31043705625757 L 1406 294.44756574473695 L 1407 294.5914689274034 L 1408 294.74213754010793 L 1409 294.89956209256195 L 1410 295.0637326689349 L 1411 295.23463892847883 L 1412 295.4122701061797 L 1413 295.59661501343555 L 1414 295.78766203876114 L 1415 295.9853991485193 L 1416 296.1898138876792 L 1417 296.40089338060034 L 1418 296.61862433184416 L 1419 296.8429930270109 L 1420 297.0739853336039 L 1421 297.31158670191957 L 1422 297.55578216596393 L 1423 297.80655634439523 L 1424 298.0638934414926 L 1425 298.3277772481515 L 1426 298.5981911429041 L 1427 298.87511809296666 L 1428 299.15854065531215 L 1429 299.44844097776917 L 1430 299.7448008001461 L 1431 300.04760145538154 L 1432 300.35682387072006 L 1433 300.6724485689134 L 1434 300.99445566944763 L 1435 301.3228248897949 L 1436 301.65753554669135 L 1437 301.9985665574399 L 1438 302.34589644123804 L 1439 302.6995033205309 L 1440 303.05936492238925 L 1441 303.42545857991274 L 1442 303.79776123365696 L 1443 304.17624943308675 L 1444 304.56089933805254 L 1445 304.9516867202924 L 1446 305.34858696495814 L 1447 305.75157507216556 L 1448 306.1606256585692 L 1449 306.5757129589613 L 1450 306.9968108278945 L 1451 307.4238927413288 L 1452 307.8569317983024 L 1453 308.29590072262573 L 1454 308.7407718645998 L 1455 309.19151720275795 L 1456 309.6481083456305 L 1457 310.1105165335332 L 1458 310.5787126403788 L 1459 311.0526671755118 L 1460 311.5323502855654 L 1461 312.0177317563428 L 1462 312.5087810147195 L 1463 313.00546713056946 L 1464 313.5077588187133 L 1465 314.01562444088864 L 1466 314.52903200774335 L 1467 315.0479491808501 L 1468 315.57234327474333 L 1469 316.1021812589784 L 1470 316.6374297602117 L 1471 317.17805506430284 L 1472 317.72402311843837 L 1473 318.27529953327667 L 1474 318.8318495851139 L 1475 319.3936382180714 L 1476 319.9606300463036 L 1477 320.53278935622694 L 1478 321.11008010876947 L 1479 321.6924659416408 L 1480 322.2799101716225 L 1481 322.87237579687877 L 1482 323.46982549928674 L 1483 324.0722216467876 L 1484 324.6795262957568 L 1485 325.2917011933937 L 1486 325.9087077801314 L 1487 326.53050719206544 L 1488 327.1570602634016 L 1489 327.78832752892305 L 1490 328.4242692264761 L 1491 329.06484529947477 L 1492 329.7100153994238 L 1493 330.35973888846013 L 1494 331.0139748419127 L 1495 331.67268205088 L 1496 332.3358190248259 L 1497 333.00334399419313 L 1498 333.67521491303387 L 1499 334.3513894616586 L 1500 335.03182504930135 L 1501 335.71647881680263 L 1502 336.40530763930906 L 1503 337.09826812898945 L 1504 337.79531663776794 L 1505 338.4964092600733 L 1506 339.2015018356042 L 1507 339.91054995211107 L 1508 340.62350894819343 L 1509 341.34033391611297 L 1510 342.0609797046221 L 1511 342.7854009218083 L 1512 343.51355193795257 L 1513 344.2453868884045 L 1514 344.9808596764702 L 1515 345.7199239763166 L 1516 346.46253323588894 L 1517 347.20864067984326 L 1518 347.95819931249247 L 1519 348.71116192076664 L 1520 349.46748107718685 L 1521 350.2271091428524 L 1522 350.9899982704417 L 1523 351.75610040722586 L 1524 352.5253672980956 L 1525 353.2977504886006 L 1526 354.07320132800163 L 1527 354.8516709723349 L 1528 355.6331103874886 L 1529 356.4174703522916 L 1530 357.2047014616138 L 1531 357.9947541294776 L 1532 358.78757859218183 L 1533 359.58312491143596 L 1534 360.3813429775056 L 1535 361.1821825123687 L 1536 361.9855930728828 L 1537 362.79152405396195 L 1538 363.59992469176456 L 1539 364.4107440668905" stroke-linecap="round" stroke-linejoin="round" stroke-miterlimit="10"/></g></svg>